<svg width="14" height="17" viewBox="0 0 14 17" fill="none" xmlns="http://www.w3.org/2000/svg">
<rect x="0.35" y="0.35" width="13.3" height="16.3" rx="0.434713" fill="white" stroke="#00C65E" stroke-width="0.7"/>
<path d="M8.66929 14.9178V14.1605H8.1322V13.6151H8.66929V13.0889H8.1322V12.4087H8.66929V10.3359H10.0476C10.63 10.3359 11.0571 10.4536 11.3289 10.6889C11.605 10.9199 11.743 11.2493 11.743 11.6771C11.743 11.9424 11.6826 12.1819 11.5618 12.3958C11.441 12.6097 11.2491 12.7787 10.9859 12.9028C10.7271 13.0268 10.3863 13.0889 9.96349 13.0889H9.49758V13.6151H10.52V14.1605H9.49758V14.9178H8.66929ZM9.8729 12.4087C10.1878 12.4087 10.438 12.3552 10.6235 12.2482C10.809 12.1413 10.9018 11.9595 10.9018 11.7028C10.9018 11.4718 10.8263 11.3006 10.6753 11.1894C10.5286 11.0739 10.3021 11.0162 9.99585 11.0162H9.49758V12.4087H9.8729Z" fill="#00C65E"/>
<rect x="2.55835" y="2.70215" width="8.8824" height="1.06952" rx="0.534759" fill="#00C65E"/>
<rect x="2.55835" y="5.33398" width="8.8824" height="1.06952" rx="0.534759" fill="#00C65E"/>
<rect x="2.55835" y="7.96484" width="6.70927" height="1.06952" rx="0.534759" fill="#00C65E"/>
<rect x="2.55835" y="10.5967" width="4.7258" height="1.06952" rx="0.534759" fill="#00C65E"/>
<rect x="2.55835" y="13.2275" width="2.52137" height="1.06952" rx="0.534759" fill="#00C65E"/>
</svg>
