<svg width="25" height="17" viewBox="0 0 25 17" fill="none" xmlns="http://www.w3.org/2000/svg">
<path d="M0.351562 6.57031C0.343388 6.42343 0.361718 6.29918 0.405273 6.20703C0.443236 6.12673 0.508299 6.05231 0.646484 6.00391C0.732466 5.9739 0.827123 5.98037 0.944335 6.0332C1.06705 6.08857 1.19599 6.18776 1.31934 6.31152C1.44065 6.4333 1.54383 6.56566 1.61719 6.66895C1.65335 6.71987 1.68148 6.76259 1.70019 6.79199C1.70946 6.80655 1.71634 6.81801 1.7207 6.8252C1.72217 6.82761 1.72374 6.8296 1.72461 6.83106L3.22754 9.46875C3.30616 9.6067 3.46859 9.67445 3.62207 9.63379C3.77523 9.59298 3.88175 9.45443 3.88184 9.2959L3.88184 3.7832C3.88185 3.10947 3.95173 2.62134 4.0625 2.3125C4.1692 2.01508 4.27103 1.98331 4.30273 1.97949C4.39387 1.98072 4.47008 2.01537 4.55469 2.14356C4.65189 2.29091 4.73437 2.53015 4.80078 2.86914L5.28613 6.40234C5.31094 6.58253 5.46976 6.71365 5.65137 6.7041C5.83321 6.69431 5.97718 6.54629 5.98242 6.36426L5.98242 6.36328C5.98246 6.36207 5.98333 6.35981 5.9834 6.35742C5.98354 6.35244 5.98311 6.34474 5.9834 6.33496C5.98398 6.31537 5.98517 6.28638 5.98633 6.24902C5.98864 6.17415 5.99255 6.06534 5.99707 5.93066C6.00611 5.66129 6.01901 5.28774 6.03613 4.87109C6.07047 4.03578 6.11935 3.03456 6.17969 2.35059C6.24143 1.65085 6.31388 1.12068 6.45312 0.768555C6.52073 0.597673 6.59481 0.496065 6.66601 0.437501C6.73021 0.384758 6.81323 0.34961 6.94336 0.34961C7.08761 0.349675 7.17396 0.383106 7.23242 0.424805C7.29385 0.468628 7.35499 0.54341 7.41113 0.673829C7.53066 0.951648 7.58514 1.37657 7.63086 1.96289C7.67505 2.5297 7.71774 3.6264 7.74902 4.58887C7.76461 5.06839 7.77724 5.51215 7.78613 5.83594C7.79057 5.99759 7.79354 6.12934 7.7959 6.2207C7.79707 6.26624 7.79822 6.30205 7.79883 6.32617C7.79912 6.33802 7.79965 6.34734 7.7998 6.35352L7.7998 6.36328C7.80449 6.55171 7.95799 6.70213 8.14648 6.7041C8.33481 6.70582 8.49048 6.55831 8.49902 6.37012L8.49902 6.36816C8.49908 6.3668 8.49988 6.36486 8.5 6.3623C8.50025 6.35685 8.5005 6.3485 8.50098 6.33789C8.50193 6.31677 8.50309 6.28577 8.50488 6.24609C8.50849 6.16616 8.51325 6.05062 8.51953 5.91016C8.5321 5.6291 8.54966 5.24607 8.56738 4.83887C8.60276 4.02567 8.64074 3.11074 8.65234 2.71875C8.66381 2.33204 8.69896 1.87287 8.81348 1.52441C8.87052 1.35095 8.93784 1.23491 9.00586 1.16797C9.06293 1.11182 9.12532 1.08342 9.22168 1.08887C9.22818 1.08924 9.2347 1.08984 9.24121 1.08984C9.32205 1.08984 9.37802 1.1063 9.42285 1.13477C9.46917 1.1643 9.53064 1.22342 9.59473 1.35059C9.73007 1.61915 9.84125 2.11911 9.875 3.00684C9.9091 3.90394 9.93836 4.74391 9.95898 5.35938C9.96928 5.66677 9.9778 5.91816 9.9834 6.09277C9.9862 6.18011 9.98878 6.24867 9.99023 6.29492C9.99096 6.31799 9.99084 6.3358 9.99121 6.34766C9.99139 6.3535 9.99209 6.35836 9.99219 6.36133L9.99219 6.36523C9.99802 6.55385 10.1521 6.70355 10.3408 6.7041C10.5295 6.70457 10.6846 6.55579 10.6914 6.36719L10.7705 4.14063L10.7715 4.14063C10.8051 3.42515 10.9332 3.09889 11.0449 2.9541C11.1321 2.84127 11.231 2.80961 11.3945 2.80957C11.4607 2.80957 11.4996 2.82148 11.5293 2.83984C11.5599 2.85894 11.6146 2.90632 11.6748 3.03223C11.8027 3.30007 11.914 3.83214 11.9375 4.85254L11.9219 10.9746L11.9219 10.9736C11.8863 11.7465 11.86 12.3964 11.7881 12.958C11.7165 13.5177 11.6026 13.961 11.4072 14.3213L11.3984 14.3389L10.8994 15.4336C10.7328 15.7939 10.5541 16.1621 10.4033 16.4385L5.13379 16.4385C4.58815 15.4287 4.01652 14.4884 3.64355 13.9258C3.15715 13.1315 2.36881 11.444 1.69434 9.93262C1.35923 9.1817 1.05523 8.48131 0.83496 7.96875C0.72484 7.7125 0.635804 7.50254 0.574218 7.35742C0.543551 7.28516 0.520061 7.2287 0.503906 7.19043C0.495814 7.17126 0.489482 7.15629 0.485351 7.14648C0.483329 7.14168 0.481493 7.13818 0.480468 7.13574C0.47995 7.13451 0.479748 7.13342 0.479492 7.13281L0.478515 7.13184C0.477998 7.13056 0.477694 7.12789 0.476562 7.125C0.473913 7.11824 0.469084 7.10719 0.463867 7.09277C0.453269 7.06346 0.43825 7.02016 0.422851 6.9668C0.3913 6.85741 0.359632 6.71466 0.351562 6.57031Z" fill="white" stroke="#00C65E" stroke-width="0.7" stroke-linejoin="round"/>
<path d="M24.6484 6.57031C24.6566 6.42343 24.6383 6.29918 24.5947 6.20703C24.5568 6.12673 24.4917 6.05231 24.3535 6.00391C24.2675 5.9739 24.1729 5.98037 24.0557 6.0332C23.933 6.08857 23.804 6.18776 23.6807 6.31152C23.5593 6.4333 23.4562 6.56566 23.3828 6.66895C23.3466 6.71987 23.3185 6.76259 23.2998 6.79199C23.2905 6.80655 23.2837 6.81801 23.2793 6.8252C23.2778 6.82761 23.2763 6.8296 23.2754 6.83106L21.7725 9.46875C21.6938 9.6067 21.5314 9.67445 21.3779 9.63379C21.2248 9.59298 21.1183 9.45443 21.1182 9.2959L21.1182 3.7832C21.1181 3.10947 21.0483 2.62134 20.9375 2.3125C20.8308 2.01508 20.729 1.98331 20.6973 1.97949C20.6061 1.98072 20.5299 2.01537 20.4453 2.14356C20.3481 2.29091 20.2656 2.53015 20.1992 2.86914L19.7139 6.40234C19.6891 6.58253 19.5302 6.71365 19.3486 6.7041C19.1668 6.69431 19.0228 6.54629 19.0176 6.36426L19.0176 6.36328C19.0175 6.36207 19.0167 6.35981 19.0166 6.35742C19.0165 6.35244 19.0169 6.34474 19.0166 6.33496C19.016 6.31537 19.0148 6.28638 19.0137 6.24902C19.0114 6.17415 19.0074 6.06534 19.0029 5.93066C18.9939 5.66129 18.981 5.28774 18.9639 4.87109C18.9295 4.03578 18.8806 3.03456 18.8203 2.35059C18.7586 1.65085 18.6861 1.12068 18.5469 0.768555C18.4793 0.597673 18.4052 0.496065 18.334 0.437501C18.2698 0.384758 18.1868 0.34961 18.0566 0.34961C17.9124 0.349675 17.826 0.383106 17.7676 0.424805C17.7061 0.468628 17.645 0.54341 17.5889 0.673829C17.4693 0.951648 17.4149 1.37657 17.3691 1.96289C17.325 2.5297 17.2823 3.6264 17.251 4.58887C17.2354 5.06839 17.2228 5.51215 17.2139 5.83594C17.2094 5.99759 17.2065 6.12934 17.2041 6.2207C17.2029 6.26624 17.2018 6.30205 17.2012 6.32617C17.2009 6.33802 17.2003 6.34734 17.2002 6.35352L17.2002 6.36328C17.1955 6.55171 17.042 6.70213 16.8535 6.7041C16.6652 6.70582 16.5095 6.55831 16.501 6.37012L16.501 6.36816C16.5009 6.3668 16.5001 6.36486 16.5 6.3623C16.4998 6.35685 16.4995 6.3485 16.499 6.33789C16.4981 6.31677 16.4969 6.28577 16.4951 6.24609C16.4915 6.16616 16.4868 6.05062 16.4805 5.91016C16.4679 5.6291 16.4503 5.24607 16.4326 4.83887C16.3972 4.02567 16.3593 3.11074 16.3477 2.71875C16.3362 2.33204 16.301 1.87287 16.1865 1.52441C16.1295 1.35095 16.0622 1.23491 15.9941 1.16797C15.9371 1.11182 15.8747 1.08342 15.7783 1.08887C15.7718 1.08924 15.7653 1.08984 15.7588 1.08984C15.6779 1.08984 15.622 1.1063 15.5771 1.13477C15.5308 1.1643 15.4694 1.22342 15.4053 1.35059C15.2699 1.61915 15.1588 2.11911 15.125 3.00684C15.0909 3.90394 15.0616 4.74391 15.041 5.35938C15.0307 5.66677 15.0222 5.91816 15.0166 6.09277C15.0138 6.18011 15.0112 6.24867 15.0098 6.29492C15.009 6.31799 15.0092 6.3358 15.0088 6.34766C15.0086 6.3535 15.0079 6.35836 15.0078 6.36133L15.0078 6.36523C15.002 6.55385 14.8479 6.70355 14.6592 6.7041C14.4705 6.70457 14.3154 6.55579 14.3086 6.36719L14.2295 4.14063L14.2285 4.14063C14.1949 3.42515 14.0668 3.09889 13.9551 2.9541C13.8679 2.84127 13.769 2.80961 13.6055 2.80957C13.5393 2.80957 13.5004 2.82148 13.4707 2.83984C13.4401 2.85894 13.3854 2.90632 13.3252 3.03223C13.1973 3.30007 13.086 3.83214 13.0625 4.85254L13.0781 10.9746L13.0781 10.9736C13.1137 11.7465 13.14 12.3964 13.2119 12.958C13.2835 13.5177 13.3974 13.961 13.5928 14.3213L13.6016 14.3389L14.1006 15.4336C14.2672 15.7939 14.4459 16.1621 14.5967 16.4385L19.8662 16.4385C20.4119 15.4287 20.9835 14.4884 21.3564 13.9258C21.8429 13.1315 22.6312 11.444 23.3057 9.93262C23.6408 9.1817 23.9448 8.48131 24.165 7.96875C24.2752 7.7125 24.3642 7.50254 24.4258 7.35742C24.4564 7.28516 24.4799 7.2287 24.4961 7.19043C24.5042 7.17126 24.5105 7.15629 24.5146 7.14648C24.5167 7.14168 24.5185 7.13818 24.5195 7.13574C24.52 7.13451 24.5203 7.13342 24.5205 7.13281L24.5215 7.13184C24.522 7.13056 24.5223 7.12789 24.5234 7.125C24.5261 7.11824 24.5309 7.10719 24.5361 7.09277C24.5467 7.06346 24.5617 7.02016 24.5771 6.9668C24.6087 6.85741 24.6404 6.71466 24.6484 6.57031Z" fill="white" stroke="#00C65E" stroke-width="0.7" stroke-linejoin="round"/>
<path d="M16.264 6.06358C16.8994 6.30545 17.4441 6.73143 17.8252 7.2863C18.204 7.83807 18.4037 8.49158 18.3983 9.16013C18.3607 9.67352 18.2173 10.1748 17.9769 10.6337C17.7352 11.095 17.4006 11.5045 16.9934 11.8351L16.9731 11.8525C16.2718 12.5169 15.0306 13.3646 13.9432 14.0567C13.4037 14.4001 12.909 14.7013 12.5494 14.9161C12.3857 15.0139 12.2494 15.0926 12.1504 15.1506C12.0477 15.0869 11.9051 14.9981 11.7329 14.8894C11.3653 14.6574 10.8621 14.3356 10.3212 13.9752C9.22848 13.2471 8.0156 12.3859 7.42526 11.7946C7.41763 11.787 7.40948 11.7787 7.40116 11.7718C7.00197 11.4399 6.6774 11.0296 6.44969 10.5662C6.2228 10.1044 6.09654 9.60026 6.07852 9.08609C6.0915 8.41697 6.30984 7.76534 6.70495 7.21713C7.10223 6.66599 7.65967 6.24529 8.30274 6.01116C8.9459 5.77707 9.6449 5.74028 10.3061 5.90568C10.9672 6.07104 11.5602 6.4306 12.0062 6.93647C12.0723 7.01144 12.1686 7.05543 12.2696 7.05636C12.3704 7.05713 12.4668 7.01489 12.5346 6.94129C12.9956 6.44072 13.5995 6.08863 14.2655 5.9318C14.9316 5.77497 15.6285 5.82165 16.264 6.06358Z" fill="#00C65E" stroke="white" stroke-width="0.7" stroke-linejoin="round"/>
</svg>
