<svg width="19" height="19" viewBox="0 0 19 19" fill="none" xmlns="http://www.w3.org/2000/svg">
<path d="M14.0339 0H4.68294C2.11104 0 0 2.11104 0 4.6978V14.0488C0 16.6207 2.11104 18.7317 4.68294 18.7317H14.0339C16.6207 18.7317 18.7317 16.6207 18.7317 14.0339V4.6978C18.7317 2.11104 16.6207 0 14.0339 0ZM11.8783 9.36587H10.1092V15.1638H7.87923V9.36587H6.68991V6.98724H7.73056V5.97632C7.73056 5.02486 8.20629 3.52335 10.2133 3.52335H12.0418V5.50059H10.7485C10.5403 5.50059 10.2579 5.63439 10.2579 6.09525V6.98724H12.0864L11.8783 9.36587Z" fill="currentColor"/>
</svg>
