<svg width="10" height="10" viewBox="0 0 10 10" fill="none" xmlns="http://www.w3.org/2000/svg">
<path fill-rule="evenodd" clip-rule="evenodd" d="M4.60325 0C4.29259 0 4.04075 0.25184 4.04075 0.5625V4.04023H0.5625C0.25184 4.04023 0 4.29207 0 4.60273C0 4.91339 0.25184 5.16523 0.5625 5.16523H4.04075V8.64322C4.04075 8.95388 4.29259 9.20572 4.60325 9.20572C4.91391 9.20572 5.16575 8.95388 5.16575 8.64322V5.16523H8.64322C8.95388 5.16523 9.20572 4.91339 9.20572 4.60273C9.20572 4.29207 8.95388 4.04023 8.64322 4.04023H5.16575V0.5625C5.16575 0.25184 4.91391 0 4.60325 0Z" fill="currentColor"/>
</svg>
