<svg width="25" height="25" viewBox="0 0 25 25" fill="none" xmlns="http://www.w3.org/2000/svg">
<path d="M21.3852 8.62155L22.2091 2.35758C22.2166 2.2306 22.1933 2.10367 22.1412 1.98765C22.089 1.87163 22.0095 1.76997 21.9095 1.69138C21.8094 1.61279 21.6919 1.5596 21.5668 1.53635C21.4417 1.51311 21.3129 1.52051 21.1913 1.55792L15.6543 3.77515C15.4942 3.83563 15.3176 3.83563 15.1575 3.77515C13.4012 3.29069 11.5465 3.29069 9.79016 3.77515C9.63009 3.83563 9.45346 3.83563 9.2934 3.77515L3.86543 1.55792C3.73845 1.50633 3.6002 1.48877 3.46436 1.50698C3.32851 1.52519 3.19977 1.57854 3.09085 1.66175C2.98194 1.74497 2.89664 1.85516 2.84336 1.98145C2.79009 2.10773 2.7707 2.24574 2.78711 2.38181L3.62311 8.62155C3.63775 8.7682 3.60822 8.91588 3.5383 9.04561C2.78157 10.5714 2.42676 12.2651 2.50746 13.9664C2.58815 15.6676 3.10169 17.3201 3.99945 18.7675C4.89721 20.2148 6.14949 21.4091 7.63774 22.2372C9.126 23.0654 10.801 23.5 12.5041 23.5C15.1017 23.4951 17.5958 22.4817 19.4606 20.6734C21.3254 18.8651 22.415 16.4034 22.4998 13.8072C22.5467 12.1626 22.1889 10.5317 21.4579 9.05773C21.3837 8.92518 21.358 8.77098 21.3852 8.62155Z" fill="#00C65E" stroke="#00C65E" stroke-width="0.7" stroke-miterlimit="10"/>
<path d="M16.3449 17.9141C16.3449 18.7016 15.4726 19.3316 14.4064 19.3316C13.3402 19.3316 12.4557 18.7016 12.4557 17.9141" stroke="white" stroke-width="0.7" stroke-linecap="round" stroke-linejoin="round"/>
<path d="M8.60278 17.9148C8.60278 18.7024 9.47514 19.3324 10.5535 19.3324C11.6318 19.3324 12.5041 18.7024 12.5041 17.9148V17.2363" stroke="white" stroke-width="0.7" stroke-linecap="round" stroke-linejoin="round"/>
<path d="M12.4921 17.6598V16.8965" stroke="white" stroke-width="0.7" stroke-linecap="round" stroke-linejoin="round"/>
<path d="M11.7166 16.4731L10.9048 15.1282C10.81 14.9934 10.7593 14.8326 10.7594 14.6678C10.7523 14.5034 10.79 14.34 10.8684 14.1953C10.9521 14.053 11.0684 13.9325 11.2077 13.844C11.3519 13.7629 11.5148 13.7211 11.6802 13.7228H13.3159C13.4814 13.72 13.6446 13.7618 13.7884 13.844C13.9331 13.9258 14.0509 14.0479 14.1276 14.1953C14.2098 14.3391 14.2516 14.5023 14.2488 14.6678C14.2375 14.8307 14.1877 14.9885 14.1034 15.1282L13.2795 16.4489C13.1961 16.5808 13.0843 16.6925 12.9524 16.776C12.8152 16.8526 12.6612 16.8942 12.5041 16.8972C12.3481 16.897 12.1945 16.8596 12.0558 16.7881C11.9181 16.7133 11.8014 16.605 11.7166 16.4731Z" fill="white"/>
<path d="M15.799 14.4127L17.8829 13.3828" stroke="white" stroke-width="0.66" stroke-linecap="round" stroke-linejoin="round"/>
<path d="M17.8829 16.8961L15.799 15.8662" stroke="white" stroke-width="0.66" stroke-linecap="round" stroke-linejoin="round"/>
<path d="M7.11194 13.3828L9.19589 14.4127" stroke="white" stroke-width="0.66" stroke-linecap="round" stroke-linejoin="round"/>
<path d="M9.19589 15.8662L7.11194 16.8961" stroke="white" stroke-width="0.66" stroke-linecap="round" stroke-linejoin="round"/>
<path d="M8.26333 11.5773C8.5437 11.5773 8.81777 11.4942 9.05089 11.3384C9.28401 11.1827 9.4657 10.9613 9.57299 10.7022C9.68029 10.4432 9.70836 10.1582 9.65366 9.88321C9.59896 9.60822 9.46395 9.35564 9.2657 9.15739C9.06745 8.95913 8.81487 8.82412 8.53988 8.76943C8.2649 8.71473 7.97987 8.7428 7.72085 8.85009C7.46182 8.95739 7.24042 9.13908 7.08466 9.3722C6.9289 9.60532 6.84576 9.87939 6.84576 10.1598C6.84414 10.3464 6.8797 10.5314 6.95037 10.7041C7.02104 10.8769 7.1254 11.0338 7.25735 11.1657C7.38931 11.2977 7.54622 11.402 7.71894 11.4727C7.89166 11.5434 8.07672 11.5789 8.26333 11.5773Z" fill="white"/>
<path d="M16.7445 11.5773C17.0249 11.5773 17.299 11.4942 17.5321 11.3384C17.7652 11.1827 17.9469 10.9613 18.0542 10.7022C18.1615 10.4432 18.1896 10.1582 18.1349 9.88321C18.0802 9.60822 17.9452 9.35564 17.7469 9.15739C17.5487 8.95913 17.2961 8.82412 17.0211 8.76943C16.7461 8.71473 16.4611 8.7428 16.202 8.85009C15.943 8.95739 15.7216 9.13908 15.5659 9.3722C15.4101 9.60532 15.327 9.87939 15.327 10.1598C15.3253 10.3464 15.3609 10.5314 15.4316 10.7041C15.5022 10.8769 15.6066 11.0338 15.7386 11.1657C15.8705 11.2977 16.0274 11.402 16.2001 11.4727C16.3729 11.5434 16.5579 11.5789 16.7445 11.5773Z" fill="white"/>
</svg>
