<svg width="25" height="25" viewBox="0 0 25 25" fill="none" xmlns="http://www.w3.org/2000/svg">
<path d="M19.8335 9.29871L20.5135 4.12871C20.5198 4.0239 20.5005 3.91914 20.4575 3.82338C20.4144 3.72762 20.3488 3.64372 20.2662 3.57886C20.1837 3.51399 20.0866 3.47009 19.9834 3.4509C19.8802 3.43172 19.7738 3.43783 19.6735 3.46871L15.1035 5.29871C14.9714 5.34862 14.8256 5.34862 14.6935 5.29871C13.2439 4.89885 11.7131 4.89885 10.2635 5.29871C10.1314 5.34862 9.98561 5.34862 9.8535 5.29871L5.3735 3.46871C5.26869 3.42612 5.15459 3.41163 5.04247 3.42666C4.93034 3.44169 4.82409 3.48572 4.7342 3.5544C4.64431 3.62308 4.5739 3.71403 4.52993 3.81826C4.48596 3.92249 4.46996 4.0364 4.4835 4.14871L5.1735 9.29871C5.18558 9.41974 5.1612 9.54163 5.1035 9.64871C4.47893 10.908 4.18608 12.3059 4.25269 13.7101C4.31929 15.1142 4.74314 16.4781 5.48411 17.6727C6.22508 18.8672 7.25865 19.8529 8.48699 20.5365C9.71533 21.22 11.0978 21.5787 12.5035 21.5787C14.6474 21.5747 16.7059 20.7382 18.245 19.2458C19.7841 17.7533 20.6835 15.7215 20.7535 13.5787C20.7922 12.2213 20.4969 10.8752 19.8935 9.65871C19.8323 9.54931 19.8111 9.42203 19.8335 9.29871Z" fill="white" stroke="#363A45" stroke-width="0.7" stroke-miterlimit="10"/>
<path d="M15.6735 16.9688C15.6735 17.6187 14.9535 18.1388 14.0735 18.1388C13.1935 18.1388 12.4635 17.6187 12.4635 16.9688" stroke="#363A45" stroke-width="0.7" stroke-linecap="round" stroke-linejoin="round"/>
<path d="M9.28345 16.9692C9.28345 17.6192 10.0034 18.1392 10.8934 18.1392C11.7834 18.1392 12.5034 17.6192 12.5034 16.9692V16.4092" stroke="#363A45" stroke-width="0.7" stroke-linecap="round" stroke-linejoin="round"/>
<path d="M12.4934 16.7589V16.1289" stroke="#363A45" stroke-width="0.7" stroke-linecap="round" stroke-linejoin="round"/>
<path d="M11.8534 15.7789L11.1834 14.6689C11.1052 14.5576 11.0633 14.4249 11.0634 14.2889C11.0576 14.1531 11.0887 14.0183 11.1534 13.8989C11.2225 13.7814 11.3185 13.682 11.4334 13.6089C11.5525 13.542 11.6869 13.5075 11.8234 13.5089H13.1734C13.3101 13.5066 13.4448 13.5411 13.5634 13.6089C13.6828 13.6765 13.7801 13.7772 13.8434 13.8989C13.9112 14.0175 13.9458 14.1523 13.9434 14.2889C13.9341 14.4233 13.893 14.5535 13.8234 14.6689L13.1434 15.7589C13.0746 15.8678 12.9823 15.96 12.8734 16.0289C12.7602 16.0921 12.6331 16.1264 12.5034 16.1289C12.3747 16.1287 12.2479 16.0979 12.1334 16.0389C12.0198 15.9771 11.9235 15.8877 11.8534 15.7789Z" fill="#00C65E"/>
<path d="M15.2229 14.0785L16.9429 13.2285" stroke="#363A45" stroke-width="0.66" stroke-linecap="round" stroke-linejoin="round"/>
<path d="M16.9429 16.1283L15.2229 15.2783" stroke="#363A45" stroke-width="0.66" stroke-linecap="round" stroke-linejoin="round"/>
<path d="M8.05298 13.2285L9.77298 14.0785" stroke="#363A45" stroke-width="0.66" stroke-linecap="round" stroke-linejoin="round"/>
<path d="M9.77298 15.2783L8.05298 16.1283" stroke="#363A45" stroke-width="0.66" stroke-linecap="round" stroke-linejoin="round"/>
<path d="M9.0033 11.7384C9.2347 11.7384 9.46091 11.6698 9.65331 11.5413C9.84572 11.4127 9.99568 11.23 10.0842 11.0162C10.1728 10.8024 10.196 10.5671 10.1508 10.3402C10.1057 10.1132 9.99424 9.90475 9.83061 9.74112C9.66698 9.5775 9.45851 9.46606 9.23155 9.42092C9.00459 9.37577 8.76935 9.39894 8.55556 9.4875C8.34177 9.57605 8.15904 9.72602 8.03048 9.91842C7.90191 10.1108 7.8333 10.337 7.8333 10.5684C7.83196 10.7225 7.86131 10.8752 7.91964 11.0178C7.97797 11.1603 8.0641 11.2898 8.17301 11.3987C8.28192 11.5076 8.41143 11.5938 8.55398 11.6521C8.69654 11.7104 8.84928 11.7398 9.0033 11.7384Z" fill="#00C65E"/>
<path d="M16.0033 11.7384C16.2347 11.7384 16.4609 11.6698 16.6533 11.5413C16.8457 11.4127 16.9957 11.23 17.0842 11.0162C17.1728 10.8024 17.196 10.5671 17.1508 10.3402C17.1057 10.1132 16.9942 9.90475 16.8306 9.74112C16.667 9.5775 16.4585 9.46606 16.2316 9.42092C16.0046 9.37577 15.7693 9.39894 15.5556 9.4875C15.3418 9.57605 15.159 9.72602 15.0305 9.91842C14.9019 10.1108 14.8333 10.337 14.8333 10.5684C14.832 10.7225 14.8613 10.8752 14.9196 11.0178C14.978 11.1603 15.0641 11.2898 15.173 11.3987C15.2819 11.5076 15.4114 11.5938 15.554 11.6521C15.6965 11.7104 15.8493 11.7398 16.0033 11.7384Z" fill="#00C65E"/>
</svg>
