<svg width="25" height="25" viewBox="0 0 25 25" fill="none" xmlns="http://www.w3.org/2000/svg">
<path d="M15.0899 22.0205C17.6299 22.0205 19.6899 17.7605 19.6899 12.5005C19.6899 7.24047 17.6299 2.98047 15.0899 2.98047C12.5499 2.98047 10.4899 7.24047 10.4899 12.5005C10.4899 17.7605 12.5499 22.0205 15.0899 22.0205Z" fill="white" stroke="#363A45" stroke-width="0.7" stroke-miterlimit="10"/>
<path d="M15.3899 16.7705C16.5299 16.7705 17.4499 14.8605 17.4499 12.5005C17.4499 10.1405 16.5299 8.23047 15.3899 8.23047C14.2499 8.23047 13.3199 10.1405 13.3199 12.5005C13.3199 14.8605 14.2499 16.7705 15.3899 16.7705Z" fill="#00C65E"/>
<path d="M9.57018 22.0205H15.0902C12.6802 22.0205 10.7302 17.7605 10.7302 12.5005C10.7302 7.24047 12.6802 2.98047 15.0902 2.98047H9.66018C7.26018 2.98047 5.31018 7.24047 5.31018 12.5005C5.31018 17.7605 7.31018 22.0205 9.66018 22.0205" fill="white"/>
<path d="M9.57018 22.0205H15.0902C12.6802 22.0205 10.7302 17.7605 10.7302 12.5005C10.7302 7.24047 12.6802 2.98047 15.0902 2.98047H9.66018C7.26018 2.98047 5.31018 7.24047 5.31018 12.5005C5.31018 17.7605 7.31018 22.0205 9.66018 22.0205" stroke="#363A45" stroke-width="0.7" stroke-miterlimit="10"/>
<path d="M9.57018 22.0205H15.0902C12.6802 22.0205 10.7302 17.7605 10.7302 12.5005C10.7302 7.24047 12.6802 2.98047 15.0902 2.98047H9.66018C7.26018 2.98047 5.31018 7.24047 5.31018 12.5005C5.31018 17.7605 7.31018 22.0205 9.66018 22.0205" stroke="#363A45" stroke-width="0.7" stroke-miterlimit="10"/>
<path d="M10.3599 5.39062C9.33309 7.61362 8.83018 10.0427 8.88994 12.4906V12.4906C8.81937 14.9621 9.32253 17.4163 10.3599 19.6606" stroke="#363A45" stroke-width="0.7" stroke-miterlimit="10" stroke-linecap="round"/>
<path d="M7.48969 8.12988C7.1627 9.55995 7.00164 11.0229 7.00969 12.4899V12.4899C7.0016 13.9535 7.16267 15.4132 7.48969 16.8399" stroke="#363A45" stroke-width="0.7" stroke-miterlimit="10" stroke-linecap="round"/>
</svg>
