<svg width="25" height="25" viewBox="0 0 25 25" fill="none" xmlns="http://www.w3.org/2000/svg">
<path d="M15.4925 23.5C18.4274 23.5 20.8076 18.5777 20.8076 12.5C20.8076 6.42227 18.4274 1.5 15.4925 1.5C12.5576 1.5 10.1774 6.42227 10.1774 12.5C10.1774 18.5777 12.5576 23.5 15.4925 23.5Z" fill="#00C65E" stroke="white" stroke-width="0.7" stroke-miterlimit="10"/>
<path d="M15.8392 17.4341C17.1564 17.4341 18.2194 15.2271 18.2194 12.5002C18.2194 9.77334 17.1564 7.56641 15.8392 7.56641C14.522 7.56641 13.4474 9.77334 13.4474 12.5002C13.4474 15.2271 14.522 17.4341 15.8392 17.4341Z" fill="white"/>
<path d="M9.11465 23.5H15.4928C12.7081 23.5 10.455 18.5777 10.455 12.5C10.455 6.42227 12.7081 1.5 15.4928 1.5H9.21864C6.44553 1.5 4.19238 6.42227 4.19238 12.5C4.19238 18.5777 6.50331 23.5 9.21864 23.5" fill="#00C65E"/>
<path d="M9.11465 23.5H15.4928C12.7081 23.5 10.455 18.5777 10.455 12.5C10.455 6.42227 12.7081 1.5 15.4928 1.5H9.21864C6.44553 1.5 4.19238 6.42227 4.19238 12.5C4.19238 18.5777 6.50331 23.5 9.21864 23.5" stroke="white" stroke-width="0.7" stroke-miterlimit="10"/>
<path d="M9.11465 23.5H15.4928C12.7081 23.5 10.455 18.5777 10.455 12.5C10.455 6.42227 12.7081 1.5 15.4928 1.5H9.21864C6.44553 1.5 4.19238 6.42227 4.19238 12.5C4.19238 18.5777 6.50331 23.5 9.21864 23.5" stroke="white" stroke-width="0.7" stroke-miterlimit="10"/>
<path d="M10.0272 4.28516C8.84074 6.85375 8.25965 9.6604 8.3287 12.4889V12.4889C8.24716 15.3446 8.82854 18.1804 10.0272 20.7736" stroke="white" stroke-width="0.7" stroke-miterlimit="10" stroke-linecap="round"/>
<path d="M6.71072 7.4502C6.33289 9.10258 6.14679 10.793 6.1561 12.488V12.488C6.14675 14.1792 6.33286 15.8658 6.71072 17.5143" stroke="white" stroke-width="0.7" stroke-miterlimit="10" stroke-linecap="round"/>
</svg>
