<svg width="25" height="25" viewBox="0 0 25 25" fill="none" xmlns="http://www.w3.org/2000/svg">
<path d="M18.1436 12.8811C17.8436 11.5611 18.2136 5.45113 18.3536 3.38113C18.3625 3.28871 18.3512 3.19546 18.3205 3.10784C18.2897 3.02022 18.2403 2.94034 18.1756 2.87374C18.1109 2.80715 18.0325 2.75542 17.9458 2.72216C17.8591 2.6889 17.7662 2.6749 17.6736 2.68113H13.8436C13.7547 2.68223 13.667 2.70156 13.5858 2.73791C13.5047 2.77427 13.4319 2.82687 13.3719 2.89248C13.3119 2.95809 13.2661 3.0353 13.2371 3.11935C13.2081 3.2034 13.1967 3.2925 13.2036 3.38113C13.5367 6.54693 13.5903 9.73593 13.3636 12.9111L7.41358 17.4311C7.12008 17.6499 6.87268 17.9246 6.6856 18.2392C6.49851 18.5539 6.37542 18.9024 6.32339 19.2648C6.27136 19.6272 6.29141 19.9962 6.38239 20.3508C6.47338 20.7054 6.6335 21.0386 6.85358 21.3311C7.27652 21.8544 7.88206 22.198 8.54821 22.2926C9.21436 22.3873 9.89163 22.2259 10.4436 21.8411C10.4436 21.8411 12.5936 20.1011 13.6036 19.2311C16.1036 17.0711 16.8436 18.0611 18.1536 16.9611C19.3036 16.0011 18.3236 13.9611 18.1436 12.8811Z" fill="white" stroke="#363A45" stroke-width="0.7" stroke-miterlimit="10"/>
<path d="M18.0144 3.36199C18.0156 3.28135 17.9871 3.20309 17.9344 3.14199C17.877 3.08119 17.798 3.04529 17.7144 3.04199H13.8344C13.7509 3.04529 13.6719 3.08119 13.6144 3.14199C13.5619 3.20704 13.5336 3.28836 13.5344 3.37199C13.5744 3.83199 13.6044 4.27199 13.6244 4.69199H17.9244C17.9544 4.19199 17.9844 3.73199 18.0144 3.36199Z" fill="#00C65E"/>
<path d="M8.74437 17.3418C8.45793 17.3443 8.17396 17.395 7.90437 17.4918L7.67437 17.6818C7.14244 18.0618 6.78284 18.6372 6.67437 19.2818C6.62789 19.5989 6.6446 19.9221 6.72355 20.2328C6.8025 20.5434 6.94212 20.8354 7.13437 21.0918C7.49877 21.548 8.02556 21.8454 8.60437 21.9218C9.1806 22.002 9.76594 21.8629 10.2444 21.5318L10.8444 21.0418C11.0815 20.6571 11.2062 20.2137 11.2044 19.7618C11.1965 19.1155 10.9335 18.4985 10.4727 18.0452C10.0119 17.592 9.39072 17.3391 8.74437 17.3418Z" fill="#00C65E"/>
<path d="M15.9738 16.202C15.9725 15.6357 16.1868 15.09 16.5731 14.6759C16.9593 14.2617 17.4887 14.0101 18.0538 13.972C18.0538 13.912 18.0538 13.862 18.0538 13.812C18.0538 13.762 17.9538 13.462 17.9138 13.292C17.1995 13.3751 16.5405 13.7172 16.0614 14.2534C15.5823 14.7897 15.3163 15.4829 15.3138 16.202C15.3103 16.6724 15.4237 17.1363 15.6438 17.552C15.8698 17.4722 16.1002 17.4055 16.3338 17.352C16.1101 17.0092 15.9855 16.6112 15.9738 16.202Z" fill="#00C65E"/>
</svg>
