<svg width="25" height="25" viewBox="0 0 25 25" fill="none" xmlns="http://www.w3.org/2000/svg">
<path d="M18.8224 12.9276C18.4863 11.449 18.9008 4.60457 19.0576 2.28576C19.0676 2.18223 19.0549 2.07776 19.0205 1.97962C18.9861 1.88147 18.9307 1.79199 18.8582 1.71738C18.7858 1.64278 18.6979 1.58484 18.6008 1.54758C18.5037 1.51032 18.3997 1.49464 18.2959 1.50162H14.0055C13.9059 1.50285 13.8077 1.5245 13.7168 1.56522C13.6259 1.60595 13.5444 1.66488 13.4772 1.73837C13.41 1.81187 13.3586 1.89836 13.3261 1.99251C13.2937 2.08666 13.2809 2.18647 13.2886 2.28576C13.6618 5.83208 13.7218 9.40439 13.4678 12.9612L6.80264 18.0245C6.47387 18.2696 6.19674 18.5773 5.98717 18.9298C5.77759 19.2823 5.63971 19.6727 5.58142 20.0786C5.52313 20.4845 5.5456 20.898 5.64752 21.2952C5.74944 21.6924 5.92881 22.0656 6.17533 22.3933C6.64912 22.9795 7.32744 23.3644 8.07366 23.4704C8.81988 23.5764 9.57855 23.3957 10.1968 22.9646C10.1968 22.9646 12.6053 21.0155 13.7367 20.0409C16.5372 17.6213 17.3661 18.7303 18.8336 17.498C20.1218 16.4227 19.024 14.1375 18.8224 12.9276Z" fill="#00C65E" stroke="#00C65E" stroke-width="0.7" stroke-miterlimit="10"/>
<path d="M18.6777 2.26471C18.6789 2.17437 18.6471 2.08671 18.5881 2.01827C18.5237 1.95015 18.4353 1.90994 18.3416 1.90625H13.9953C13.9016 1.90994 13.8132 1.95015 13.7488 2.01827C13.6899 2.09113 13.6582 2.18223 13.6592 2.27592C13.704 2.79121 13.7376 3.28409 13.76 3.75458H18.5769C18.6105 3.19448 18.6441 2.67919 18.6777 2.26471Z" fill="white"/>
<path d="M8.29339 17.9248C7.97252 17.9276 7.65441 17.9844 7.35242 18.0929L7.09478 18.3057C6.49891 18.7314 6.09609 19.3759 5.97458 20.098C5.92251 20.4533 5.94123 20.8153 6.02967 21.1633C6.1181 21.5112 6.27451 21.8383 6.48987 22.1256C6.89807 22.6366 7.48818 22.9697 8.13656 23.0553C8.78205 23.1452 9.43775 22.9893 9.97369 22.6185L10.6458 22.0696C10.9115 21.6386 11.0512 21.1419 11.0491 20.6357C11.0402 19.9117 10.7456 19.2206 10.2295 18.7128C9.71332 18.205 9.01742 17.9218 8.29339 17.9248Z" fill="white"/>
<path d="M16.3918 16.6475C16.3903 16.0131 16.6303 15.4019 17.063 14.9379C17.4958 14.474 18.0888 14.1921 18.7218 14.1494C18.7218 14.0822 18.7218 14.0262 18.7218 13.9702C18.7218 13.9142 18.6098 13.5781 18.5649 13.3877C17.7648 13.4808 17.0266 13.864 16.4899 14.4647C15.9532 15.0654 15.6552 15.842 15.6524 16.6475C15.6485 17.1744 15.7755 17.694 16.0221 18.1597C16.2753 18.0704 16.5333 17.9956 16.795 17.9357C16.5444 17.5517 16.4048 17.1059 16.3918 16.6475Z" fill="white"/>
</svg>
