<svg width="25" height="25" viewBox="0 0 25 25" fill="none" xmlns="http://www.w3.org/2000/svg">
<path d="M15.1986 21.2109C14.9562 21.1937 14.7525 21.0612 14.5911 20.8777C14.5089 20.7869 14.4461 20.6799 14.4066 20.5636C14.367 20.4472 14.3515 20.3239 14.3611 20.2012V18.929C14.3515 18.8063 14.367 18.683 14.4066 18.5666C14.4461 18.4502 14.5089 18.3433 14.5911 18.2525C14.7525 18.069 14.9787 17.9567 15.2211 17.9395H9.7572C10.0026 17.9619 10.2331 18.0817 10.3911 18.2727C10.474 18.365 10.5373 18.4737 10.5768 18.5918C10.6164 18.7099 10.6315 18.835 10.6211 18.9593V20.2214C10.6054 20.4594 10.5143 20.686 10.3611 20.8676C10.2078 21.0503 9.9951 21.172 9.76111 21.2109H15.1986Z" fill="white" stroke="#363A45" stroke-width="0.7" stroke-miterlimit="10"/>
<path d="M21.1401 2.53516H3.85007C3.47059 2.56585 3.11842 2.74456 2.86958 3.03269C2.62074 3.32082 2.4952 3.69526 2.52007 4.07516V16.4152C2.4952 16.7951 2.62074 17.1695 2.86958 17.4576C3.11842 17.7458 3.47059 17.9245 3.85007 17.9552H21.1401C21.5213 17.927 21.876 17.7493 22.127 17.4609C22.3779 17.1725 22.5048 16.7967 22.4801 16.4152V4.07516C22.5048 3.69365 22.3779 3.31781 22.127 3.0294C21.876 2.74099 21.5213 2.56336 21.1401 2.53516Z" fill="white" stroke="#363A45" stroke-width="0.7" stroke-miterlimit="10"/>
<path d="M16.7804 4.05469H4.99041C4.8552 4.06451 4.7234 4.10172 4.60302 4.16406C4.48264 4.2264 4.37619 4.31257 4.29014 4.41732C4.20409 4.52208 4.14024 4.64323 4.10247 4.77343C4.06469 4.90363 4.05379 5.04014 4.07041 5.17469V14.1747C4.05379 14.3092 4.06469 14.4457 4.10247 14.5759C4.14024 14.7061 4.20409 14.8273 4.29014 14.9321C4.37619 15.0368 4.48264 15.123 4.60302 15.1853C4.7234 15.2477 4.8552 15.2849 4.99041 15.2947C8.89041 15.2547 16.7804 8.38469 16.7804 4.05469Z" fill="#00C65E"/>
<path d="M6.93591 21.2148H18.0459C18.3911 21.2148 18.6709 21.4947 18.6709 21.8398C18.6709 22.185 18.3911 22.4648 18.0459 22.4648H6.93591C6.59074 22.4648 6.31091 22.185 6.31091 21.8398C6.31091 21.4947 6.59074 21.2148 6.93591 21.2148Z" fill="#F7F7F7" stroke="#363A45" stroke-width="0.7" stroke-miterlimit="10"/>
<path d="M12.5004 16.6348C12.6981 16.6348 12.8915 16.5761 13.0559 16.4662C13.2204 16.3564 13.3486 16.2002 13.4242 16.0174C13.4999 15.8347 13.5197 15.6337 13.4812 15.4397C13.4426 15.2457 13.3473 15.0675 13.2075 14.9277C13.0676 14.7878 12.8894 14.6926 12.6955 14.654C12.5015 14.6154 12.3004 14.6352 12.1177 14.7109C11.935 14.7866 11.7788 14.9147 11.6689 15.0792C11.559 15.2436 11.5004 15.437 11.5004 15.6348C11.5004 15.9 11.6057 16.1543 11.7933 16.3419C11.9808 16.5294 12.2351 16.6348 12.5004 16.6348Z" fill="#00C65E"/>
</svg>
