<svg width="25" height="25" viewBox="0 0 25 25" fill="none" xmlns="http://www.w3.org/2000/svg">
<path d="M15.4788 22.1162C15.2112 22.0972 14.9864 21.9509 14.8082 21.7484C14.7175 21.6481 14.6482 21.5301 14.6045 21.4016C14.5609 21.2731 14.5438 21.137 14.5543 21.0016V19.5972C14.5438 19.4618 14.5609 19.3257 14.6045 19.1972C14.6482 19.0687 14.7175 18.9507 14.8082 18.8504C14.9864 18.6479 15.236 18.5239 15.5037 18.5049H9.47217C9.74309 18.5296 9.99753 18.6619 10.1719 18.8727C10.2635 18.9747 10.3333 19.0946 10.3769 19.225C10.4206 19.3554 10.4373 19.4935 10.4258 19.6306V21.0239C10.4085 21.2866 10.3079 21.5367 10.1388 21.7372C9.96952 21.9389 9.73478 22.0732 9.47648 22.1162H15.4788Z" fill="#00C65E" stroke="#00C65E" stroke-width="0.7" stroke-miterlimit="10"/>
<path d="M22.0375 1.5H2.95144C2.53255 1.53388 2.14379 1.73115 1.8691 2.04922C1.59441 2.36728 1.45583 2.78061 1.48328 3.19998V16.8219C1.45583 17.2412 1.59441 17.6546 1.8691 17.9726C2.14379 18.2907 2.53255 18.488 2.95144 18.5218H22.0375C22.4584 18.4907 22.85 18.2946 23.127 17.9763C23.404 17.6579 23.5441 17.243 23.5167 16.8219V3.19998C23.5441 2.77884 23.404 2.36395 23.127 2.04558C22.85 1.72721 22.4584 1.53113 22.0375 1.5Z" fill="#00C65E" stroke="#00C65E" stroke-width="0.7" stroke-miterlimit="10"/>
<path d="M17.2251 3.17773H4.2103C4.06105 3.18858 3.91556 3.22965 3.78267 3.29847C3.64978 3.36728 3.53227 3.4624 3.43728 3.57804C3.3423 3.69367 3.27181 3.82742 3.23012 3.97114C3.18842 4.11486 3.17638 4.26556 3.19473 4.41408V14.349C3.17638 14.4975 3.18842 14.6482 3.23012 14.7919C3.27181 14.9357 3.3423 15.0694 3.43728 15.1851C3.53227 15.3007 3.64978 15.3958 3.78267 15.4646C3.91556 15.5334 4.06105 15.5745 4.2103 15.5854C8.51544 15.5412 17.2251 7.95754 17.2251 3.17773Z" fill="white"/>
<path d="M6.30797 22.1201H18.6719C19.0254 22.1201 19.3119 22.4067 19.3119 22.7601V22.86C19.3119 23.2134 19.0254 23.5 18.6719 23.5H6.30797C5.95451 23.5 5.66797 23.2134 5.66797 22.86V22.7601C5.66797 22.4067 5.95451 22.1201 6.30797 22.1201Z" fill="#00C65E" stroke="#00C65E" stroke-width="0.7" stroke-miterlimit="10"/>
<path d="M12.5004 17.0642C12.7187 17.0642 12.9321 16.9995 13.1136 16.8782C13.2952 16.7569 13.4367 16.5845 13.5202 16.3828C13.6038 16.1811 13.6256 15.9591 13.583 15.745C13.5404 15.5308 13.4353 15.3341 13.2809 15.1798C13.1265 15.0254 12.9299 14.9203 12.7157 14.8777C12.5016 14.8351 12.2796 14.8569 12.0779 14.9405C11.8762 15.024 11.7038 15.1655 11.5825 15.347C11.4612 15.5286 11.3965 15.742 11.3965 15.9603C11.3965 16.2531 11.5128 16.5339 11.7198 16.7409C11.9268 16.9479 12.2076 17.0642 12.5004 17.0642Z" fill="white"/>
</svg>
