<svg width="25" height="25" viewBox="0 0 25 25" fill="none" xmlns="http://www.w3.org/2000/svg">
<path d="M21.0151 6.96498H4.01506C3.8256 6.96233 3.63749 6.99736 3.46168 7.06804C3.28587 7.13872 3.12586 7.24363 2.99095 7.37668C2.85603 7.50974 2.74891 7.66828 2.6758 7.84309C2.60269 8.0179 2.56504 8.2055 2.56506 8.39498V20.925C2.56506 21.3042 2.71572 21.668 2.9839 21.9361C3.25208 22.2043 3.6158 22.355 3.99506 22.355H20.9951C21.3726 22.3523 21.7338 22.2005 21.9998 21.9326C22.2658 21.6647 22.4151 21.3025 22.4151 20.925V8.39498C22.4151 8.02086 22.2686 7.66161 22.0069 7.39428C21.7452 7.12695 21.3891 6.97283 21.0151 6.96498Z" fill="white" stroke="#363A45" stroke-width="0.7" stroke-miterlimit="10"/>
<path d="M9.67543 7.28479V5.45479C9.67336 4.70589 9.96823 3.9867 10.4954 3.45479C10.758 3.1933 11.0702 2.98693 11.4136 2.84783C11.7571 2.70873 12.1249 2.6397 12.4954 2.64479C12.8609 2.64347 13.223 2.71448 13.5608 2.85372C13.8987 2.99296 14.2057 3.19768 14.4641 3.45609C14.7225 3.7145 14.9273 4.02149 15.0665 4.35937C15.2057 4.69725 15.2767 5.05935 15.2754 5.42479V7.28479" stroke="#00C65E" stroke-width="2" stroke-miterlimit="10"/>
<path d="M20.9052 6.96484H4.10519C3.90126 6.96483 3.69936 7.00531 3.5112 7.08395C3.32305 7.16259 3.15238 7.27782 3.00912 7.42295C2.86585 7.56807 2.75283 7.74021 2.67663 7.92937C2.60042 8.11852 2.56254 8.32093 2.56519 8.52484V11.9348C2.56519 12.3433 2.72744 12.735 3.01625 13.0238C3.30505 13.3126 3.69676 13.4748 4.10519 13.4748H20.9052C21.107 13.4748 21.3067 13.4349 21.493 13.3574C21.6793 13.2799 21.8484 13.1663 21.9906 13.0232C22.1328 12.8801 22.2453 12.7102 22.3216 12.5234C22.3979 12.3366 22.4365 12.1366 22.4352 11.9348V8.52484C22.4392 8.32141 22.4026 8.11923 22.3275 7.93012C22.2524 7.74102 22.1403 7.56879 21.9978 7.42352C21.8553 7.27826 21.6853 7.16287 21.4977 7.08411C21.3101 7.00535 21.1087 6.9648 20.9052 6.96484Z" fill="white" stroke="#363A45" stroke-width="0.7" stroke-miterlimit="10"/>
<path d="M13.6756 11.4141H11.3356V15.5241H13.6756V11.4141Z" fill="#00C65E"/>
</svg>
