<svg width="25" height="25" viewBox="0 0 25 25" fill="none" xmlns="http://www.w3.org/2000/svg">
<g clip-path="url(#clip0_887_15025)">
<path d="M21.9273 6.37223H3.1054C2.89563 6.36929 2.68736 6.40808 2.49271 6.48633C2.29806 6.56458 2.1209 6.68074 1.97153 6.82805C1.82215 6.97536 1.70355 7.15089 1.6226 7.34444C1.54165 7.53799 1.49998 7.74569 1.5 7.95548V21.8284C1.5 22.2483 1.66681 22.651 1.96373 22.9479C2.26064 23.2448 2.66335 23.4116 3.08326 23.4116H21.9052C22.3232 23.4087 22.7231 23.2406 23.0176 22.944C23.3121 22.6474 23.4774 22.2464 23.4774 21.8284V7.95548C23.4775 7.54127 23.3152 7.14351 23.0255 6.84753C22.7357 6.55155 22.3415 6.38091 21.9273 6.37223Z" fill="#00C65E" stroke="#00C65E" stroke-width="0.7" stroke-miterlimit="10"/>
<path d="M9.37245 6.72644V4.70031C9.37016 3.87115 9.69663 3.07488 10.2803 2.48597C10.571 2.19645 10.9167 1.96797 11.2969 1.81396C11.6772 1.65995 12.0844 1.58352 12.4947 1.58916C12.8993 1.58769 13.3002 1.66631 13.6743 1.82047C14.0484 1.97464 14.3883 2.2013 14.6744 2.4874C14.9605 2.77351 15.1871 3.1134 15.3413 3.48749C15.4955 3.86159 15.5741 4.26249 15.5726 4.6671V6.72644" stroke="#00C65E" stroke-width="2" stroke-miterlimit="10"/>
<path d="M21.8057 6.37207H3.20519C2.9794 6.37205 2.75586 6.41688 2.54754 6.50394C2.33922 6.59101 2.15026 6.71859 1.99164 6.87927C1.83302 7.03995 1.70789 7.23054 1.62352 7.43997C1.53915 7.64939 1.49721 7.87349 1.50014 8.09926V11.8747C1.50014 12.3269 1.67978 12.7606 1.99954 13.0804C2.3193 13.4001 2.75298 13.5798 3.20519 13.5798H21.8057C22.0291 13.5798 22.2503 13.5356 22.4565 13.4498C22.6628 13.3639 22.85 13.2382 23.0075 13.0797C23.1649 12.9212 23.2894 12.7332 23.3739 12.5264C23.4584 12.3196 23.5011 12.0981 23.4997 11.8747V8.09926C23.5041 7.87403 23.4635 7.65017 23.3804 7.4408C23.2972 7.23143 23.1732 7.04074 23.0154 6.87991C22.8577 6.71907 22.6694 6.59132 22.4617 6.50412C22.254 6.41692 22.031 6.37203 21.8057 6.37207Z" fill="white" stroke="#00C65E" stroke-width="0.7" stroke-miterlimit="10"/>
<path d="M13.8012 11.2979H11.2104V15.8483H13.8012V11.2979Z" fill="white"/>
</g>
<defs>
<clipPath id="clip0_887_15025">
<rect width="25" height="25" fill="white"/>
</clipPath>
</defs>
</svg>
