<svg width="25" height="25" viewBox="0 0 25 25" fill="none" xmlns="http://www.w3.org/2000/svg">
<path d="M15.7534 10.2434V10.3948C15.7469 10.513 15.6944 10.624 15.6072 10.7041C15.2939 10.8082 14.6777 10.7734 14.7191 9.80194V7.0144C14.6812 5.76568 14.6308 4.34038 14.5677 3.59619C14.5555 3.02563 14.4577 2.46014 14.2776 1.91862C14.2355 1.79299 14.1564 1.68305 14.0506 1.60329C13.9404 1.52583 13.8063 1.49006 13.6722 1.50238C13.5404 1.49328 13.4099 1.53377 13.3064 1.6159C13.1845 1.73515 13.0936 1.88236 13.0415 2.04475C12.83 2.71107 12.707 3.40233 12.6757 4.10072C12.6001 4.99627 12.4991 6.29544 12.4991 7.38019C12.4361 7.90994 12.4361 9.56229 12.4361 9.90285C12.4439 10.0415 12.4439 10.1805 12.4361 10.3191V10.4578C12.4361 10.5783 12.3882 10.6938 12.3031 10.7789C12.2179 10.8641 12.1024 10.9119 11.982 10.9119C11.8616 10.9119 11.7461 10.8641 11.6609 10.7789C11.5758 10.6938 11.5279 10.5783 11.5279 10.4578L10.8973 4.69355C10.85 4.36578 10.7431 4.04943 10.5819 3.76016C10.551 3.69873 10.5043 3.64656 10.4467 3.60891C10.3892 3.57126 10.3227 3.54947 10.254 3.54574C10.2161 3.54574 10.0774 3.58358 9.93864 3.97459C9.75286 4.59593 9.67187 5.24387 9.69899 5.89181V14.0905C9.6973 14.1909 9.66324 14.2881 9.60188 14.3676C9.54053 14.4472 9.45515 14.5048 9.35843 14.5319C9.26107 14.555 9.15883 14.5452 9.06759 14.5041C8.97636 14.4631 8.90124 14.393 8.8539 14.3049L6.89883 10.8867C6.89883 10.8867 5.71037 8.57964 5.00531 9.01677C4.30025 9.45391 5.43569 11.7066 5.43569 11.7066C5.51137 11.8958 5.6375 12.1606 5.77625 12.5012C6.06636 13.1445 6.45737 14.0526 6.89883 15.0239C7.76915 16.9915 10.6576 22.1756 11.3766 23.5H18.2508C18.5788 22.9198 18.9824 22.0242 19.2725 21.3684C19.386 21.1287 19.4743 20.9143 19.55 20.7755C19.7748 20.1916 19.9437 19.5876 20.0545 18.9718C20.1428 18.3033 20.2185 17.5213 20.2185 16.6005V7.26667C20.2559 6.46594 20.1403 5.66542 19.8779 4.90798C19.6436 4.20117 19.2337 4.57143 19.0581 4.84491C18.8022 5.31604 18.6801 5.84818 18.7049 6.38373L18.5283 10.3443C18.525 10.4625 18.4757 10.5748 18.3909 10.6573C18.3061 10.7397 18.1925 10.7858 18.0742 10.7858C18.0152 10.7875 17.9564 10.7773 17.9014 10.7559C17.8464 10.7344 17.7962 10.7022 17.7539 10.661C17.7115 10.6199 17.6779 10.5706 17.6549 10.5162C17.632 10.4618 17.6201 10.4034 17.6202 10.3443V9.99114V9.03253C17.5949 8.23789 17.5192 5.99272 17.5192 4.81968C17.5358 4.08399 17.4117 3.35191 17.1535 2.66281C17.1039 2.55169 17.0255 2.45587 16.9264 2.38531C16.8483 2.36182 16.7649 2.36182 16.6868 2.38531C16.6311 2.38156 16.5753 2.38974 16.5231 2.40932C16.4709 2.4289 16.4235 2.45942 16.3841 2.49883C16.2678 2.63475 16.1818 2.79384 16.1318 2.96553C15.9952 3.47157 15.9232 3.99285 15.9174 4.51696C15.9047 5.03411 15.8165 6.21976 15.8165 7.27928C15.7534 7.78381 15.7534 9.43616 15.7534 9.80194V10.2434Z" fill="#00C65E" stroke="#00C65E" stroke-width="0.7" stroke-linejoin="round"/>
<path d="M14.5803 16.98L14.883 17.1692L16.2831 16.4502C17.0501 15.9877 17.7759 15.4602 18.4526 14.8735C18.7489 14.6437 18.9902 14.3507 19.159 14.0158C19.3337 13.6881 19.4369 13.3269 19.4617 12.9563C19.4678 12.4758 19.3269 12.0049 19.0581 11.6067C18.7767 11.2104 18.3869 10.9038 17.9355 10.7238C17.4749 10.5552 16.9753 10.5245 16.4976 10.6355C16.0157 10.7463 15.5771 10.9963 15.2362 11.3544C15.2114 11.3834 15.1804 11.4065 15.1455 11.4218C15.1105 11.4371 15.0725 11.4442 15.0344 11.4427C14.9626 11.4378 14.8951 11.4063 14.8452 11.3544C14.5143 10.9814 14.072 10.7249 13.5839 10.6229C13.1156 10.4773 12.6142 10.4773 12.146 10.6229C11.6869 10.7952 11.288 11.0977 10.9981 11.4932C10.7121 11.8859 10.5536 12.357 10.5441 12.8428C10.5539 13.2111 10.6443 13.5727 10.8089 13.9023C10.9741 14.2323 11.206 14.5244 11.4901 14.76C12.1412 15.3357 12.8372 15.8587 13.5713 16.3241L14.5803 16.98Z" fill="white" stroke="white" stroke-width="0.4" stroke-linejoin="round"/>
</svg>
