<svg width="25" height="25" viewBox="0 0 25 25" fill="none" xmlns="http://www.w3.org/2000/svg">
<path d="M15.0794 10.7112V10.8312C15.0742 10.9249 15.0327 11.0129 14.9636 11.0764C14.7152 11.1589 14.2266 11.1314 14.2594 10.3612V8.15118C14.2294 7.16118 14.1894 6.03118 14.1394 5.44118C14.1297 4.98884 14.0522 4.54051 13.9094 4.11118C13.876 4.01158 13.8133 3.92442 13.7294 3.86118C13.6421 3.79977 13.5357 3.77142 13.4294 3.78118C13.3249 3.77397 13.2215 3.80607 13.1394 3.87118C13.0428 3.96572 12.9707 4.08244 12.9294 4.21118C12.7617 4.73945 12.6642 5.28749 12.6394 5.84118C12.5794 6.55118 12.4994 7.58118 12.4994 8.44118C12.4494 8.86118 12.4494 10.1712 12.4494 10.4412C12.4556 10.5511 12.4556 10.6613 12.4494 10.7712V10.8812C12.4494 10.9767 12.4115 11.0682 12.344 11.1357C12.2765 11.2033 12.1849 11.2412 12.0894 11.2412C11.9939 11.2412 11.9024 11.2033 11.8349 11.1357C11.7673 11.0682 11.7294 10.9767 11.7294 10.8812L11.2294 6.31118C11.192 6.05132 11.1072 5.80052 10.9794 5.57118C10.9549 5.52248 10.9179 5.48112 10.8722 5.45127C10.8266 5.42142 10.7739 5.40414 10.7194 5.40118C10.6894 5.40118 10.5794 5.43119 10.4694 5.74118C10.3221 6.23379 10.2579 6.74748 10.2794 7.26118V13.7612C10.2781 13.8408 10.2511 13.9179 10.2024 13.9809C10.1538 14.044 10.0861 14.0897 10.0094 14.1112C9.93223 14.1294 9.85117 14.1217 9.77884 14.0891C9.7065 14.0566 9.64695 14.0011 9.60942 13.9312L8.05942 11.2212C8.05942 11.2212 7.11718 9.39213 6.55821 9.73869C5.99923 10.0853 6.89942 11.8712 6.89942 11.8712C6.95942 12.0212 7.05942 12.2312 7.16942 12.5012C7.39942 13.0112 7.70942 13.7312 8.05942 14.5012C8.74942 16.0612 11.0394 20.1712 11.6094 21.2212H17.0594C17.3194 20.7612 17.6394 20.0512 17.8694 19.5312C17.9594 19.3412 18.0294 19.1712 18.0894 19.0612C18.2676 18.5982 18.4016 18.1194 18.4894 17.6312C18.5594 17.1012 18.6194 16.4812 18.6194 15.7512V8.35118C18.6491 7.71636 18.5574 7.08169 18.3494 6.48118C18.1636 5.92082 17.8387 6.21437 17.6994 6.43119C17.4966 6.8047 17.3997 7.22659 17.4194 7.65118L17.2794 10.7912C17.2768 10.8849 17.2377 10.9739 17.1705 11.0393C17.1033 11.1047 17.0132 11.1412 16.9194 11.1412C16.8726 11.1425 16.826 11.1345 16.7824 11.1175C16.7388 11.1005 16.699 11.0749 16.6654 11.0423C16.6319 11.0096 16.6052 10.9706 16.587 10.9275C16.5688 10.8843 16.5594 10.838 16.5594 10.7912V10.5112V9.75118C16.5394 9.12118 16.4794 7.34119 16.4794 6.41119C16.4925 5.82792 16.3941 5.24751 16.1894 4.70118C16.1501 4.61309 16.088 4.53713 16.0094 4.48118C15.9475 4.46256 15.8814 4.46256 15.8194 4.48118C15.7753 4.47821 15.7311 4.4847 15.6897 4.50022C15.6483 4.51574 15.6107 4.53994 15.5794 4.57118C15.4873 4.67895 15.4191 4.80507 15.3794 4.94118C15.2711 5.34238 15.214 5.75566 15.2094 6.17118C15.1994 6.58118 15.1294 7.52118 15.1294 8.36118C15.0794 8.76118 15.0794 10.0712 15.0794 10.3612V10.7112Z" fill="white" stroke="#363A45" stroke-width="0.7" stroke-linejoin="round"/>
<path d="M14.1495 16.0523L14.3895 16.2023L15.4995 15.6323C16.1075 15.2657 16.683 14.8475 17.2195 14.3823C17.4543 14.2001 17.6457 13.9678 17.7795 13.7023C17.918 13.4425 17.9998 13.1562 18.0195 12.8623C18.0243 12.4814 17.9126 12.1081 17.6995 11.7923C17.4764 11.4781 17.1674 11.2351 16.8095 11.0923C16.4443 10.9587 16.0482 10.9344 15.6695 11.0223C15.2875 11.1102 14.9397 11.3085 14.6695 11.5923C14.6498 11.6154 14.6252 11.6336 14.5975 11.6457C14.5698 11.6579 14.5397 11.6635 14.5095 11.6623C14.4525 11.6584 14.399 11.6335 14.3595 11.5923C14.0971 11.2966 13.7465 11.0932 13.3595 11.0123C12.9882 10.8969 12.5907 10.8969 12.2195 11.0123C11.8555 11.149 11.5393 11.3888 11.3095 11.7023C11.0827 12.0137 10.957 12.3872 10.9495 12.7723C10.9573 13.0643 11.029 13.351 11.1595 13.6123C11.2904 13.874 11.4743 14.1056 11.6995 14.2923C12.2157 14.7488 12.7675 15.1634 13.3495 15.5323L14.1495 16.0523Z" fill="#00C65E" stroke="white" stroke-width="0.4" stroke-linejoin="round"/>
</svg>
