<svg width="25" height="25" viewBox="0 0 25 25" fill="none" xmlns="http://www.w3.org/2000/svg">
<path d="M13.4528 10.7919C15.3066 13.4304 19.9264 13.8325 20.9073 13.9796C21.4287 14.0579 22.0565 14.4549 22.3289 14.8956C22.6277 15.3252 22.7793 15.8401 22.7611 16.3631C22.7664 16.9042 22.5585 17.4257 22.1824 17.8148C21.993 18.0043 21.7702 18.1573 21.5252 18.266C21.2783 18.3653 21.0163 18.4217 20.7504 18.4327H4.79183C4.25513 18.4209 3.74447 18.199 3.36959 17.8148C3.18408 17.624 3.03828 17.3984 2.94062 17.1509C2.84297 16.9034 2.79541 16.6389 2.80069 16.3729C2.79088 16.2882 2.79088 16.2026 2.80069 16.1179C3.30317 11.7218 4.09613 7.36383 5.17437 3.07252C5.2073 2.93589 5.28513 2.81428 5.39539 2.72714C5.50565 2.64 5.64196 2.59237 5.7825 2.5919H12.1483C12.2336 2.59037 12.3184 2.60655 12.3972 2.63943C12.476 2.6723 12.5472 2.72116 12.6062 2.78291C12.6651 2.84465 12.7107 2.91796 12.7399 2.99819C12.7692 3.07843 12.7814 3.16385 12.776 3.24907C12.6877 4.95576 12.5308 9.49713 13.4528 10.7919Z" fill="#00C65E" stroke="#00C65E" stroke-width="0.7" stroke-miterlimit="10"/>
<path d="M21.4106 18.6533H3.37268V20.772H21.4106V18.6533Z" fill="#00C65E" stroke="white" stroke-width="0.7" stroke-miterlimit="10"/>
<path d="M3.37344 22.41C3.74397 22.41 4.10618 22.3001 4.41426 22.0942C4.72235 21.8884 4.96247 21.5958 5.10426 21.2535C5.24606 20.9111 5.28316 20.5344 5.21087 20.171C5.13859 19.8076 4.96016 19.4738 4.69815 19.2118C4.43615 18.9498 4.10234 18.7714 3.73892 18.6991C3.37551 18.6268 2.99883 18.6639 2.6565 18.8057C2.31418 18.9475 2.02159 19.1876 1.81573 19.4957C1.60988 19.8038 1.5 20.166 1.5 20.5365C1.5 21.0334 1.69738 21.5099 2.04872 21.8612C2.40005 22.2126 2.87657 22.41 3.37344 22.41Z" fill="white"/>
<path d="M21.6266 22.41C21.9971 22.41 22.3594 22.3001 22.6674 22.0942C22.9755 21.8884 23.2156 21.5958 23.3574 21.2535C23.4992 20.9111 23.5363 20.5344 23.464 20.171C23.3918 19.8076 23.2133 19.4738 22.9513 19.2118C22.6893 18.9498 22.3555 18.7714 21.9921 18.6991C21.6287 18.6268 21.252 18.6639 20.9097 18.8057C20.5674 18.9475 20.2748 19.1876 20.0689 19.4957C19.863 19.8038 19.7532 20.166 19.7532 20.5365C19.7532 21.0334 19.9506 21.5099 20.3019 21.8612C20.6532 22.2126 21.1297 22.41 21.6266 22.41Z" fill="white"/>
<path d="M15.5455 22.4099C15.9152 22.406 16.2755 22.2928 16.5809 22.0846C16.8864 21.8764 17.1235 21.5825 17.2623 21.2399C17.4011 20.8972 17.4354 20.5212 17.3609 20.1591C17.2864 19.7969 17.1065 19.465 16.8437 19.2049C16.5809 18.9449 16.2471 18.7684 15.8842 18.6977C15.5214 18.627 15.1457 18.6652 14.8045 18.8075C14.4633 18.9499 14.1719 19.19 13.9669 19.4977C13.7619 19.8053 13.6525 20.1667 13.6525 20.5364C13.6525 20.7841 13.7016 21.0293 13.7969 21.2579C13.8923 21.4865 14.0321 21.6939 14.2081 21.8681C14.3841 22.0423 14.593 22.1799 14.8226 22.2729C15.0521 22.3659 15.2979 22.4124 15.5455 22.4099Z" fill="white"/>
<path d="M9.4645 22.41C9.83503 22.41 10.1972 22.3001 10.5053 22.0942C10.8134 21.8884 11.0535 21.5958 11.1953 21.2535C11.3371 20.9111 11.3742 20.5344 11.3019 20.171C11.2297 19.8076 11.0512 19.4738 10.7892 19.2118C10.5272 18.9498 10.1934 18.7714 9.82999 18.6991C9.46658 18.6268 9.08989 18.6639 8.74757 18.8057C8.40524 18.9475 8.11265 19.1876 7.9068 19.4957C7.70094 19.8038 7.59106 20.166 7.59106 20.5365C7.59364 21.0326 7.79185 21.5076 8.14263 21.8584C8.49341 22.2092 8.96843 22.4074 9.4645 22.41Z" fill="white"/>
<path d="M8.90508 10.5121H13.0639C12.9854 10.2178 12.8776 9.88436 12.8187 9.53125H8.89527C8.76776 9.53125 8.66968 9.66857 8.66968 9.83532V10.208C8.67949 10.3748 8.74815 10.5121 8.90508 10.5121Z" fill="white"/>
<path d="M12.6713 7.95156H8.9048C8.77728 7.95156 8.6792 7.81424 8.6792 7.64749V7.27477C8.6792 7.10802 8.77728 6.9707 8.9048 6.9707H12.6026L12.6713 7.95156Z" fill="white"/>
</svg>
