<svg width="25" height="25" viewBox="0 0 25 25" fill="none" xmlns="http://www.w3.org/2000/svg">
<path d="M13.5654 11.0474C15.2507 13.446 19.4506 13.8116 20.3422 13.9454C20.8163 14.0165 21.387 14.3775 21.6346 14.778C21.9062 15.1686 22.0441 15.6367 22.0275 16.1122C22.0323 16.6041 21.8433 17.0781 21.5014 17.4319C21.3292 17.6042 21.1267 17.7432 20.904 17.842C20.6796 17.9323 20.4413 17.9836 20.1996 17.9936H5.69182C5.2039 17.9829 4.73967 17.7812 4.39887 17.4319C4.23023 17.2585 4.09768 17.0533 4.0089 16.8283C3.92012 16.6033 3.87688 16.3629 3.88169 16.1211C3.87277 16.0441 3.87277 15.9663 3.88169 15.8892C4.33849 11.8928 5.05936 7.93099 6.03957 4.02979C6.06952 3.90559 6.14027 3.79503 6.24051 3.71581C6.34074 3.63659 6.46466 3.5933 6.59242 3.59286H12.3795C12.4571 3.59147 12.5342 3.60619 12.6058 3.63607C12.6775 3.66596 12.7421 3.71037 12.7957 3.76651C12.8494 3.82264 12.8908 3.88928 12.9173 3.96222C12.9439 4.03516 12.9551 4.11282 12.9502 4.19029C12.8699 5.74183 12.7272 9.87034 13.5654 11.0474Z" fill="white" stroke="#363A45" stroke-width="0.7" stroke-miterlimit="10"/>
<path d="M20.6005 17.9941H4.20239V19.9202H20.6005V17.9941Z" fill="white" stroke="#363A45" stroke-width="0.7" stroke-miterlimit="10"/>
<path d="M4.20312 21.4092C4.53997 21.4092 4.86925 21.3093 5.14933 21.1221C5.42941 20.935 5.6477 20.669 5.7766 20.3578C5.90551 20.0466 5.93924 19.7042 5.87352 19.3738C5.80781 19.0434 5.6456 18.74 5.40741 18.5018C5.16923 18.2636 4.86576 18.1014 4.53539 18.0357C4.20501 17.9699 3.86257 18.0037 3.55137 18.1326C3.24016 18.2615 2.97417 18.4798 2.78703 18.7598C2.59989 19.0399 2.5 19.3692 2.5 19.7061C2.5 20.1578 2.67944 20.5909 2.99883 20.9103C3.31823 21.2297 3.75143 21.4092 4.20312 21.4092Z" fill="#00C65E"/>
<path d="M20.7969 21.4092C21.1337 21.4092 21.463 21.3093 21.7431 21.1221C22.0232 20.935 22.2414 20.669 22.3704 20.3578C22.4993 20.0466 22.533 19.7042 22.4673 19.3738C22.4016 19.0434 22.2394 18.74 22.0012 18.5018C21.763 18.2636 21.4595 18.1014 21.1291 18.0357C20.7988 17.9699 20.4563 18.0037 20.1451 18.1326C19.8339 18.2615 19.5679 18.4798 19.3808 18.7598C19.1936 19.0399 19.0938 19.3692 19.0938 19.7061C19.0938 20.1578 19.2732 20.5909 19.5926 20.9103C19.912 21.2297 20.3452 21.4092 20.7969 21.4092Z" fill="#00C65E"/>
<path d="M15.2687 21.4091C15.6048 21.4056 15.9323 21.3027 16.21 21.1134C16.4877 20.9242 16.7032 20.657 16.8294 20.3455C16.9556 20.034 16.9868 19.6921 16.919 19.3629C16.8513 19.0337 16.6877 18.7319 16.4489 18.4955C16.21 18.2591 15.9065 18.0987 15.5766 18.0344C15.2467 17.9701 14.9052 18.0048 14.595 18.1343C14.2849 18.2637 14.0199 18.482 13.8336 18.7616C13.6472 19.0413 13.5477 19.3699 13.5477 19.706C13.5477 19.9311 13.5924 20.1541 13.6791 20.3619C13.7658 20.5697 13.8928 20.7582 14.0529 20.9166C14.2129 21.075 14.4028 21.2001 14.6115 21.2846C14.8201 21.3691 15.0435 21.4114 15.2687 21.4091Z" fill="#00C65E"/>
<path d="M9.74048 21.4092C10.0773 21.4092 10.4066 21.3093 10.6867 21.1221C10.9668 20.935 11.1851 20.669 11.314 20.3578C11.4429 20.0466 11.4766 19.7042 11.4109 19.3738C11.3452 19.0434 11.183 18.74 10.9448 18.5018C10.7066 18.2636 10.4031 18.1014 10.0727 18.0357C9.74237 17.9699 9.39993 18.0037 9.08872 18.1326C8.77751 18.2615 8.51152 18.4798 8.32438 18.7598C8.13724 19.0399 8.03735 19.3692 8.03735 19.7061C8.0397 20.157 8.21988 20.5889 8.53878 20.9078C8.85767 21.2266 9.2895 21.4068 9.74048 21.4092Z" fill="#00C65E"/>
<path d="M9.23183 10.5929H13.0126C12.9412 10.3254 12.8432 10.0222 12.7897 9.70117H9.22291C9.10699 9.70117 9.01782 9.82601 9.01782 9.9776V10.3164C9.02674 10.468 9.08916 10.5929 9.23183 10.5929Z" fill="#00C65E"/>
<path d="M12.6558 8.26571H9.2317C9.11578 8.26571 9.02661 8.14087 9.02661 7.98929V7.65045C9.02661 7.49886 9.11578 7.37402 9.2317 7.37402H12.5934L12.6558 8.26571Z" fill="#00C65E"/>
</svg>
