<svg width="25" height="25" viewBox="0 0 25 25" fill="none" xmlns="http://www.w3.org/2000/svg">
<path d="M15.2249 2.94922H9.77493C9.35058 2.94922 8.94361 3.11779 8.64356 3.41785C8.3435 3.71791 8.17493 4.12487 8.17493 4.54922V20.4392C8.17492 20.8645 8.34317 21.2725 8.64294 21.5741C8.94272 21.8758 9.34966 22.0466 9.77493 22.0492H15.2249C15.4359 22.0492 15.6448 22.0075 15.8395 21.9265C16.0343 21.8454 16.2111 21.7267 16.3598 21.5771C16.5086 21.4274 16.6262 21.2499 16.706 21.0546C16.7858 20.8593 16.8262 20.6502 16.8249 20.4392V4.54922C16.8249 4.12487 16.6564 3.71791 16.3563 3.41785C16.0562 3.11779 15.6493 2.94922 15.2249 2.94922Z" fill="white" stroke="#363A45" stroke-width="0.7" stroke-miterlimit="10"/>
<path d="M16.4783 9.18945H8.52515V9.88945H16.4783V9.18945Z" fill="#363A45"/>
<path d="M9.08508 5.98926V7.80926H10.0851V5.98926H9.08508Z" fill="#00C65E"/>
<path d="M9.08508 11.2686V13.0886H10.0851V11.2686H9.08508Z" fill="#00C65E"/>
<path d="M16.4782 9.1893H15.3282C15.3731 8.09482 15.1821 7.00348 14.7682 5.9893C14.2839 4.90073 13.5132 3.96408 12.5382 3.2793H15.3582C15.6553 3.2793 15.9401 3.3973 16.1502 3.60734C16.3602 3.81738 16.4782 4.10225 16.4782 4.3993V9.1893Z" fill="#00C65E"/>
</svg>
