<svg width="25" height="25" viewBox="0 0 25 25" fill="none" xmlns="http://www.w3.org/2000/svg">
<path d="M20.8023 10.3706L13.3323 2.90061C13.2231 2.79213 13.0936 2.70626 12.9512 2.64792C12.8088 2.58957 12.6562 2.5599 12.5023 2.56061C12.3498 2.55899 12.1985 2.58828 12.0575 2.64672C11.9166 2.70515 11.789 2.79152 11.6823 2.90061L4.19232 10.3706C3.46232 11.1106 4.84232 12.3706 4.84232 12.3706V22.4406H20.1623V12.3706C20.1623 12.3706 21.5423 11.1106 20.8023 10.3706Z" fill="white" stroke="#363A45" stroke-width="0.7" stroke-linecap="round" stroke-linejoin="round"/>
<path d="M11.9122 3.13127L4.43224 10.6113C4.39366 10.6464 4.36366 10.6899 4.34459 10.7384C4.32551 10.787 4.31787 10.8393 4.32224 10.8913C4.42924 11.357 4.68561 11.7749 5.05224 12.0813L5.11224 12.1413L13.4522 3.51127L13.0722 3.13127C12.9138 2.98651 12.7069 2.90625 12.4922 2.90625C12.2776 2.90625 12.0707 2.98651 11.9122 3.13127Z" fill="#00C65E"/>
<path d="M18.843 14.1307C18.593 14.1307 17.103 14.0707 16.673 16.3607H16.113C16.5732 14.5804 17.2446 12.8615 18.113 11.2407C18.113 11.2407 16.023 12.3407 15.303 16.3807H15.033C15.733 13.2307 14.523 7.68066 14.523 7.68066C14.1217 10.5637 14.0647 13.4842 14.353 16.3807H14.093C13.373 12.3807 11.293 11.2407 11.293 11.2407C12.1621 12.8682 12.8336 14.5938 13.293 16.3807H12.773C12.353 14.0707 10.863 14.1107 10.613 14.1307C10.783 14.1307 11.473 14.2607 12.173 16.3807H11.493L12.283 22.1007H17.283L17.943 16.3807H17.273C17.983 14.2607 18.673 14.1307 18.843 14.1307Z" fill="#00C65E"/>
</svg>
