<svg width="25" height="25" viewBox="0 0 25 25" fill="none" xmlns="http://www.w3.org/2000/svg">
<path d="M15.6387 1.5H9.36124C8.87247 1.5 8.40371 1.69417 8.05809 2.03978C7.71248 2.3854 7.51831 2.85416 7.51831 3.34293V21.6456C7.5183 22.1354 7.7121 22.6053 8.05739 22.9528C8.40268 23.3002 8.87141 23.497 9.36124 23.5H15.6387C15.8817 23.5 16.1223 23.452 16.3467 23.3586C16.571 23.2653 16.7747 23.1285 16.946 22.9562C17.1173 22.7838 17.2528 22.5793 17.3447 22.3543C17.4366 22.1294 17.4832 21.8885 17.4817 21.6456V3.34293C17.4817 2.85416 17.2875 2.3854 16.9419 2.03978C16.5963 1.69417 16.1275 1.5 15.6387 1.5Z" fill="#00C65E" stroke="#00C65E" stroke-width="0.7" stroke-miterlimit="10"/>
<path d="M17.0823 8.6875H7.92163V9.49378H17.0823V8.6875Z" fill="white"/>
<path d="M8.56665 5.00195V7.09829H9.71848V5.00195H8.56665Z" fill="white"/>
<path d="M8.56665 11.082V13.1784H9.71848V11.082H8.56665Z" fill="white"/>
<path d="M17.0823 8.68721H15.7577C15.8094 7.42656 15.5894 6.16952 15.1127 5.00135C14.5548 3.7475 13.6671 2.66864 12.5441 1.87988H15.7922C16.1344 1.87988 16.4625 2.0158 16.7044 2.25773C16.9464 2.49966 17.0823 2.82779 17.0823 3.16994V8.68721Z" fill="white"/>
</svg>
