<svg width="25" height="25" viewBox="0 0 25 25" fill="none" xmlns="http://www.w3.org/2000/svg">
<path d="M21.6878 10.1429L13.4212 1.87633C13.3004 1.75628 13.1571 1.66125 12.9995 1.59669C12.8419 1.53212 12.6731 1.49929 12.5027 1.50007C12.3339 1.49828 12.1665 1.5307 12.0105 1.59536C11.8546 1.66003 11.7133 1.7556 11.5953 1.87633L3.30659 10.1429C2.49875 10.9618 4.02591 12.3562 4.02591 12.3562V23.5H20.9796V12.3562C20.9796 12.3562 22.5067 10.9618 21.6878 10.1429Z" fill="#00C65E" stroke="#00C65E" stroke-width="0.7" stroke-linecap="round" stroke-linejoin="round"/>
<path d="M11.8498 2.13183L3.57215 10.4095C3.52945 10.4483 3.49626 10.4965 3.47515 10.5502C3.45404 10.6039 3.44558 10.6618 3.45042 10.7193C3.56883 11.2347 3.85253 11.6971 4.25827 12.0362L4.32466 12.1026L13.554 2.55235L13.1335 2.13183C12.9581 1.97163 12.7292 1.88281 12.4916 1.88281C12.2541 1.88281 12.0252 1.97163 11.8498 2.13183Z" fill="white"/>
<path d="M19.5196 14.3038C19.2429 14.3038 17.5941 14.2374 17.1182 16.7716H16.4985C17.0077 14.8015 17.7507 12.8993 18.7118 11.1056C18.7118 11.1056 16.3989 12.3229 15.6021 16.7937H15.3033C16.078 13.3078 14.7389 7.16602 14.7389 7.16602C14.2949 10.3565 14.2317 13.5884 14.5508 16.7937H14.2631C13.4663 12.3672 11.1645 11.1056 11.1645 11.1056C12.1263 12.9067 12.8693 14.8163 13.3778 16.7937H12.8023C12.3375 14.2374 10.6886 14.2817 10.412 14.3038C10.6001 14.3038 11.3637 14.4477 12.1383 16.7937H11.3858L12.2601 23.1237H17.7933L18.5236 16.7937H17.7822C18.5679 14.4477 19.3315 14.3038 19.5196 14.3038Z" fill="white"/>
</svg>
