<svg width="25" height="25" viewBox="0 0 25 25" fill="none" xmlns="http://www.w3.org/2000/svg">
<path d="M15.34 19.9799L12.91 22.1299C12.7935 22.2312 12.6443 22.287 12.49 22.287C12.3356 22.287 12.1864 22.2312 12.07 22.1299L9.66997 19.9999C9.5914 19.9334 9.53095 19.8481 9.49423 19.752C9.45751 19.6558 9.44573 19.5519 9.45997 19.4499L10.98 7.19994C11.0059 7.0516 11.0832 6.91714 11.1984 6.8202C11.3137 6.72326 11.4594 6.67005 11.61 6.66994H13.31C13.4641 6.6687 13.6133 6.72398 13.7294 6.82533C13.8455 6.92669 13.9204 7.06708 13.94 7.21994L15.56 19.4499C15.5656 19.5491 15.5487 19.6483 15.5106 19.7401C15.4725 19.8319 15.4142 19.9139 15.34 19.9799Z" fill="white" stroke="#363A45" stroke-width="0.7" stroke-miterlimit="10"/>
<path d="M14.6 14.6898L14.51 14.0098L10.47 14.0198L10.38 14.6998L14.6 14.6898Z" fill="#00C65E"/>
<path d="M14.86 16.7601L14.77 16.0801L10.21 16.0901L10.13 16.7801L14.86 16.7601Z" fill="#00C65E"/>
<path d="M15.11 18.72L15.01 18.04L9.96 18.05L9.87 18.73L15.11 18.72Z" fill="#00C65E"/>
<path d="M11.23 2.50978H13.76C13.8541 2.50924 13.9471 2.52978 14.0321 2.56989C14.1172 2.60999 14.1923 2.66864 14.2517 2.74153C14.3112 2.81441 14.3536 2.89969 14.3758 2.9911C14.398 3.08251 14.3994 3.17773 14.38 3.26978L14.01 5.10978C13.9839 5.2545 13.9073 5.38525 13.7937 5.47867C13.6801 5.57209 13.537 5.62211 13.39 5.61978H11.67C11.5223 5.62055 11.3788 5.57018 11.264 5.47722C11.1491 5.38426 11.07 5.25444 11.04 5.10978L10.61 3.26978C10.5906 3.17773 10.592 3.08251 10.6142 2.9911C10.6364 2.89969 10.6788 2.81441 10.7383 2.74153C10.7977 2.66864 10.8728 2.60999 10.9579 2.56989C11.0429 2.52978 11.1359 2.50924 11.23 2.50978Z" fill="#00C65E" stroke="#363A45" stroke-width="0.7" stroke-miterlimit="10"/>
</svg>
