<svg width="25" height="25" viewBox="0 0 25 25" fill="none" xmlns="http://www.w3.org/2000/svg">
<path d="M15.6508 20.934L12.9477 23.3256C12.8181 23.4383 12.6522 23.5004 12.4805 23.5004C12.3088 23.5004 12.1428 23.4383 12.0133 23.3256L9.34353 20.9562C9.25613 20.8822 9.18888 20.7873 9.14803 20.6803C9.10719 20.5734 9.09408 20.4578 9.10992 20.3444L10.8008 6.71752C10.8296 6.55251 10.9156 6.40293 11.0438 6.2951C11.172 6.18726 11.3341 6.12808 11.5016 6.12795H13.3927C13.5641 6.12657 13.7301 6.18806 13.8592 6.30081C13.9884 6.41355 14.0717 6.56972 14.0935 6.73977L15.8955 20.3444C15.9018 20.4547 15.883 20.5651 15.8406 20.6672C15.7982 20.7693 15.7334 20.8605 15.6508 20.934Z" fill="#00C65E" stroke="#00C65E" stroke-width="0.7" stroke-miterlimit="10"/>
<path d="M14.8276 15.0494L14.7275 14.293L10.2334 14.3041L10.1333 15.0605L14.8276 15.0494Z" fill="white"/>
<path d="M15.1169 17.3521L15.0167 16.5957L9.94422 16.6068L9.85522 17.3744L15.1169 17.3521Z" fill="white"/>
<path d="M15.395 19.5318L15.2838 18.7754L9.66616 18.7865L9.56604 19.5429L15.395 19.5318Z" fill="white"/>
<path d="M11.0789 1.50001H13.8933C13.9979 1.49942 14.1014 1.52227 14.196 1.56688C14.2907 1.61149 14.3741 1.67673 14.4403 1.75781C14.5064 1.83889 14.5536 1.93376 14.5783 2.03544C14.603 2.13712 14.6046 2.24305 14.583 2.34543L14.1714 4.39224C14.1424 4.55324 14.0571 4.69868 13.9308 4.80261C13.8044 4.90653 13.6453 4.96216 13.4817 4.95957H11.5684C11.404 4.96042 11.2444 4.9044 11.1167 4.80099C10.989 4.69758 10.9009 4.55317 10.8676 4.39224L10.3892 2.34543C10.3676 2.24305 10.3692 2.13712 10.3939 2.03544C10.4186 1.93376 10.4658 1.83889 10.5319 1.75781C10.5981 1.67673 10.6815 1.61149 10.7762 1.56688C10.8708 1.52227 10.9743 1.49942 11.0789 1.50001Z" fill="white" stroke="#00C65E" stroke-width="0.7" stroke-miterlimit="10"/>
</svg>
