<svg width="25" height="25" viewBox="0 0 25 25" fill="none" xmlns="http://www.w3.org/2000/svg">
<path d="M22.22 12.5712C22.03 11.7912 21.6 11.5712 21.07 11.8712C21.07 11.8712 20 12.5712 19.59 12.8712C18.822 13.3372 17.9245 13.5441 17.03 13.4612C15.669 13.4122 14.3377 13.0495 13.14 12.4012C13.9233 12.0269 14.5776 11.4282 15.02 10.6812C15.4763 9.92931 15.7023 9.06016 15.67 8.18121C15.6789 6.69211 15.1088 5.25782 14.08 4.18121C13.5828 3.65772 12.9863 3.23863 12.3252 2.94845C11.6642 2.65826 10.9519 2.50282 10.23 2.49121C9.23 2.49121 7.79 3.32121 6.9 5.49121C6.55736 6.1796 6.39235 6.94276 6.42 7.71121C6.42 8.47121 5.97 9.93121 6.42 10.5012C7.02 11.3712 2.5 14.6212 2.5 17.5012C2.5 20.6912 4.89 22.6612 12.24 22.5012C17.24 22.3712 21.13 20.3412 22.02 17.6012C22.5821 15.9811 22.6517 14.2308 22.22 12.5712Z" fill="white" stroke="#363A45" stroke-width="0.7" stroke-miterlimit="10"/>
<path d="M6.94979 6.33121L3.58979 5.74121C3.47979 5.90121 3.21979 6.33121 3.79979 7.37121C4.05911 7.77114 4.39986 8.11189 4.79979 8.37121C4.79979 8.37121 3.71979 8.28121 3.49979 8.57121C3.46036 8.61866 3.42986 8.67287 3.40979 8.73121C3.39986 8.79416 3.39986 8.85827 3.40979 8.92121C3.42263 8.98165 3.44635 9.03925 3.47979 9.09121L3.60979 9.22121C3.79979 9.32121 6.67979 10.2212 6.67979 10.2212C6.97533 9.91279 7.14937 9.50789 7.16979 9.08121C7.16979 8.35121 6.71979 8.28121 6.84979 6.97121C6.87063 6.75611 6.90402 6.54242 6.94979 6.33121Z" fill="#00C65E"/>
<path d="M8.54959 6.02089C8.83959 5.39089 8.85959 4.78089 8.54959 4.66089C8.23959 4.54089 7.84959 4.94089 7.54959 5.57089C7.24959 6.20089 7.23959 6.80089 7.48959 6.93089C7.73959 7.06089 8.25959 6.68089 8.54959 6.02089Z" fill="#363A45"/>
<path d="M8.09987 19.7311C7.85969 19.369 7.6712 18.9752 7.53987 18.5611C7.38522 18.1357 7.34386 17.6773 7.41987 17.2311C7.47851 16.995 7.60755 16.7822 7.78987 16.6211C7.9597 16.474 8.14795 16.3496 8.34987 16.2511C8.73151 16.0561 9.12975 15.8955 9.53987 15.7711C10.3499 15.5211 11.1699 15.3211 11.9999 15.1511L14.4699 14.6811L14.7599 14.6211C14.7858 15.1814 14.7043 15.7414 14.5199 16.2711C14.397 16.4961 14.2458 16.7045 14.0699 16.8911C14.0699 16.8911 15.6999 15.8911 16.4499 15.6211L16.5699 15.5711L16.6399 15.6511C16.7568 15.7883 16.8453 15.9473 16.9003 16.119C16.9552 16.2906 16.9755 16.4715 16.9599 16.6511C16.911 16.9996 16.7615 17.3262 16.5299 17.5911C16.3237 17.8505 16.0851 18.0824 15.8199 18.2811C15.5598 18.4695 15.2894 18.6431 15.0099 18.8011C13.0099 15.9911 9.81987 16.3611 8.56987 17.8511C8.19842 18.4036 8.03214 19.0688 8.09987 19.7311Z" fill="#00C65E"/>
</svg>
