<svg width="25" height="25" viewBox="0 0 25 25" fill="none" xmlns="http://www.w3.org/2000/svg">
<path d="M23.1821 12.5774C22.9733 11.7203 22.5007 11.4785 21.9183 11.8082C21.9183 11.8082 20.7424 12.5774 20.2918 12.9071C19.4478 13.4193 18.4616 13.6466 17.4785 13.5555C15.9828 13.5017 14.5198 13.103 13.2036 12.3906C14.0644 11.9792 14.7835 11.3213 15.2696 10.5004C15.7711 9.67412 16.0195 8.71896 15.9839 7.75304C15.9938 6.11659 15.3672 4.54037 14.2366 3.35723C13.6903 2.78194 13.0347 2.32137 12.3082 2.00248C11.5817 1.68358 10.7989 1.51276 10.0056 1.5C8.90669 1.5 7.3242 2.41213 6.34613 4.79686C5.96958 5.55336 5.78825 6.39204 5.81864 7.23653C5.81864 8.07174 5.32411 9.67621 5.81864 10.3026C6.47801 11.2587 1.51074 14.8303 1.51074 17.9953C1.51074 21.5009 4.13724 23.6659 12.2145 23.49C17.7093 23.3472 21.9842 21.1163 22.9623 18.1052C23.58 16.3248 23.6565 14.4013 23.1821 12.5774Z" fill="#00C65E" stroke="#00C65E" stroke-width="0.7" stroke-miterlimit="10"/>
<path d="M5.99158 6.00293C5.97131 6.13094 5.95527 6.25961 5.94275 6.38867C5.86644 7.15794 5.96015 7.58853 6.08337 7.9375C6.20359 8.27784 6.29039 8.41694 6.29138 8.73633C6.27433 9.04647 6.1657 9.34158 5.98376 9.58984C5.90814 9.56611 5.81583 9.53779 5.7113 9.50488C5.41161 9.41053 5.00996 9.28362 4.60193 9.15332C4.19363 9.02294 3.77964 8.8888 3.45544 8.78125C3.29331 8.72746 3.15456 8.68099 3.05115 8.64453C2.99348 8.6242 2.95426 8.6082 2.92908 8.59863L2.87341 8.54297C2.86586 8.528 2.85769 8.51344 2.85388 8.49707C2.85211 8.4812 2.85132 8.46516 2.85193 8.44922C2.85934 8.43374 2.86731 8.41854 2.8783 8.40527L2.8822 8.40039C2.88059 8.40373 2.91071 8.37878 3.01794 8.35254C3.13178 8.3247 3.27782 8.30884 3.43103 8.30176C3.58138 8.29483 3.7266 8.29673 3.83533 8.30078C3.88931 8.3028 3.9339 8.3057 3.96423 8.30762C3.97909 8.30856 3.99081 8.30901 3.99841 8.30957C4.00221 8.30985 4.00549 8.31041 4.0072 8.31055H4.06873C4.20479 8.29865 4.32417 8.20694 4.36951 8.07422C4.42104 7.92263 4.36313 7.75524 4.22888 7.66797C3.8322 7.41075 3.49356 7.07299 3.23572 6.67676C2.94399 6.14922 2.8842 5.81158 2.88904 5.6123C2.89049 5.55363 2.89929 5.50429 2.90955 5.46191L5.99158 6.00293Z" fill="white" stroke="#00C65E" stroke-width="0.7" stroke-linejoin="round"/>
<path d="M8.15894 5.37924C8.47763 4.6869 8.49961 4.01654 8.15894 3.88467C7.81826 3.75279 7.38967 4.19237 7.05998 4.88471C6.7303 5.57705 6.71931 6.23643 6.99405 6.37929C7.26879 6.52215 7.84024 6.10455 8.15894 5.37924Z" fill="white"/>
<path d="M7.66472 20.4457C7.40077 20.0478 7.19364 19.6151 7.04931 19.16C6.87935 18.6924 6.8339 18.1887 6.91744 17.6983C6.98188 17.4388 7.12368 17.205 7.32405 17.028C7.51068 16.8663 7.71756 16.7296 7.93946 16.6214C8.35886 16.4071 8.79651 16.2305 9.24722 16.0939C10.1374 15.8191 11.0385 15.5993 11.9506 15.4125L14.6651 14.896L14.9837 14.8301C15.0122 15.4458 14.9227 16.0613 14.72 16.6434C14.585 16.8907 14.4188 17.1197 14.2255 17.3247C14.2255 17.3247 16.0168 16.2257 16.841 15.929L16.9729 15.8741L17.0498 15.962C17.1783 16.1127 17.2756 16.2875 17.3359 16.4762C17.3963 16.6648 17.4186 16.8636 17.4014 17.061C17.3477 17.4439 17.1835 17.8029 16.9289 18.094C16.7023 18.3791 16.4401 18.6339 16.1486 18.8522C15.8629 19.0593 15.5657 19.25 15.2585 19.4237C13.0606 16.3356 9.55492 16.7423 8.18123 18.3797C7.77303 18.9869 7.59029 19.7179 7.66472 20.4457Z" fill="white"/>
</svg>
