<svg width="25" height="25" viewBox="0 0 25 25" fill="none" xmlns="http://www.w3.org/2000/svg">
<path d="M22.2808 8.84301C22.2808 4.51901 17.8878 1 12.5058 1C7.12375 1 2.71924 4.51901 2.71924 8.84301C2.77225 10.7815 3.03052 12.709 3.48974 14.593L3.85774 16.5595C3.90133 16.7989 3.99542 17.0263 4.13374 17.2265C4.39873 17.6311 4.81149 17.9159 5.28374 18.02C5.52306 18.066 5.76893 18.066 6.00824 18.02L6.52574 17.9395C6.76659 17.8888 6.9964 17.7954 7.20425 17.6635C7.40611 17.527 7.57824 17.3509 7.71025 17.146C7.88619 16.9364 8.01906 16.6941 8.10125 16.433C8.15289 16.1943 8.15289 15.9473 8.10125 15.7085L7.50325 12.9255C7.44853 12.6841 7.35117 12.4543 7.21575 12.247C7.0794 12.0418 6.90346 11.8659 6.69825 11.7295C6.49803 11.5912 6.27065 11.4971 6.03124 11.4535C5.78807 11.4075 5.53842 11.4075 5.29524 11.4535L4.80074 11.5455C4.66123 11.5741 4.52596 11.6205 4.39824 11.6835C4.22853 10.7501 4.14385 9.80323 4.14524 8.85451C4.14524 5.32401 7.88275 2.4605 12.4828 2.4605C17.0828 2.4605 20.8433 5.32401 20.8433 8.84301C20.8495 9.79523 20.7687 10.746 20.6018 11.6835C20.4675 11.6169 20.3241 11.5704 20.1763 11.5455L19.6818 11.442C19.44 11.3918 19.1907 11.3902 18.9483 11.4373C18.7059 11.4843 18.4752 11.5791 18.2698 11.716C18.0643 11.853 17.8882 12.0295 17.7515 12.2351C17.6148 12.4408 17.5204 12.6715 17.4738 12.914L16.9218 15.6855C16.8248 16.1713 16.924 16.6757 17.1978 17.0885C17.4641 17.494 17.8756 17.7821 18.3478 17.8935L18.8423 17.9855C19.0827 18.0355 19.3307 18.0368 19.5717 17.9894C19.8126 17.942 20.0417 17.8468 20.2453 17.7095C20.6472 17.4419 20.9313 17.0303 21.0388 16.5595L21.4298 14.6045C21.9577 12.7281 22.2436 10.7919 22.2808 8.84301Z" fill="#00C65E" stroke="#00C65E" stroke-width="0.7" stroke-miterlimit="10"/>
<path d="M16.0471 7.2793H8.96309C8.85838 7.279 8.75475 7.30036 8.65871 7.34205C8.56266 7.38374 8.47628 7.44485 8.40499 7.52153C8.33371 7.59822 8.27906 7.68883 8.24448 7.78766C8.20991 7.88649 8.19615 7.9914 8.20409 8.0958V23.2413C8.20409 23.4426 8.28405 23.6357 8.42639 23.778C8.56873 23.9204 8.76179 24.0003 8.96309 24.0003H16.0471C16.2464 23.9973 16.4365 23.916 16.5764 23.774C16.7162 23.632 16.7946 23.4407 16.7946 23.2413V8.0958C16.8025 7.99236 16.789 7.88841 16.7552 7.79036C16.7213 7.69231 16.6677 7.60224 16.5976 7.52573C16.5276 7.44921 16.4426 7.38786 16.3479 7.34548C16.2532 7.3031 16.1508 7.28057 16.0471 7.2793Z" fill="white" stroke="#00C65E" stroke-width="0.7" stroke-miterlimit="10"/>
<path d="M19.8427 12.7933L19.4133 12.7123C18.9202 12.6193 18.4451 12.9436 18.3521 13.4367L17.96 15.5161C17.867 16.0091 18.1913 16.4842 18.6844 16.5772L19.1138 16.6582C19.6069 16.7512 20.082 16.4268 20.175 15.9338L20.5671 13.8544C20.6601 13.3614 20.3358 12.8863 19.8427 12.7933Z" fill="white"/>
<path d="M5.84773 16.6644L6.27716 16.5834C6.77022 16.4904 7.09454 16.0153 7.00156 15.5223L6.60941 13.4429C6.51642 12.9499 6.04134 12.6255 5.54828 12.7185L5.11885 12.7995C4.62579 12.8925 4.30146 13.3676 4.39445 13.8606L4.7866 15.94C4.87958 16.4331 5.35467 16.7574 5.84773 16.6644Z" fill="white"/>
<path d="M10.2417 7.2793V8.5575C10.2417 8.87507 10.4991 9.1325 10.8167 9.1325H14.1822C14.4997 9.1325 14.7572 8.87507 14.7572 8.5575V7.2793H10.2417Z" fill="#00C65E"/>
</svg>
