<svg width="25" height="25" viewBox="0 0 25 25" fill="none" xmlns="http://www.w3.org/2000/svg">
<path d="M21.005 9.32C21.005 5.56 17.185 2.5 12.505 2.5C7.825 2.5 3.995 5.56 3.995 9.32C4.04109 11.0057 4.26568 12.6817 4.66499 14.32L4.98499 16.03C5.0229 16.2382 5.10472 16.4359 5.225 16.61C5.45542 16.9618 5.81434 17.2094 6.225 17.3C6.43309 17.34 6.6469 17.34 6.85499 17.3L7.305 17.23C7.51443 17.1859 7.71426 17.1046 7.895 16.99C8.07053 16.8712 8.2202 16.7182 8.33499 16.54C8.48799 16.3577 8.60353 16.147 8.67499 15.92C8.7199 15.7124 8.7199 15.4976 8.67499 15.29L8.15499 12.87C8.10741 12.66 8.02275 12.4602 7.90499 12.28C7.78643 12.1016 7.63344 11.9486 7.455 11.83C7.2809 11.7097 7.08318 11.6279 6.87499 11.59C6.66354 11.55 6.44645 11.55 6.23499 11.59L5.805 11.67C5.68368 11.6949 5.56606 11.7352 5.455 11.79C5.30742 10.9783 5.23379 10.155 5.23499 9.33C5.23499 6.26 8.48499 3.77 12.485 3.77C16.485 3.77 19.755 6.26 19.755 9.32C19.7604 10.148 19.6902 10.9748 19.545 11.79C19.4282 11.7321 19.3035 11.6917 19.175 11.67L18.745 11.58C18.5348 11.5364 18.3179 11.535 18.1072 11.5759C17.8964 11.6168 17.6958 11.6992 17.5172 11.8183C17.3385 11.9374 17.1853 12.0908 17.0665 12.2696C16.9477 12.4485 16.8656 12.6492 16.825 12.86L16.345 15.27C16.2607 15.6924 16.3469 16.131 16.585 16.49C16.8166 16.8426 17.1744 17.0931 17.585 17.19L18.015 17.27C18.2241 17.3134 18.4397 17.3146 18.6493 17.2734C18.8588 17.2321 19.0579 17.1494 19.235 17.03C19.5845 16.7973 19.8315 16.4394 19.925 16.03L20.265 14.33C20.724 12.6983 20.9727 11.0147 21.005 9.32Z" fill="white" stroke="#363A45" stroke-width="0.7" stroke-miterlimit="10"/>
<path d="M15.5845 7.95996H9.42447C9.33342 7.9597 9.24331 7.97828 9.15979 8.01453C9.07627 8.05078 9.00116 8.10392 8.93917 8.1706C8.87718 8.23729 8.82966 8.31607 8.7996 8.40201C8.76953 8.48795 8.75757 8.57918 8.76447 8.66996V21.84C8.76447 22.015 8.83401 22.1829 8.95778 22.3067C9.08155 22.4304 9.24943 22.5 9.42447 22.5H15.5845C15.7578 22.4973 15.9231 22.4266 16.0447 22.3032C16.1663 22.1797 16.2345 22.0133 16.2345 21.84V8.66996C16.2413 8.58002 16.2296 8.48962 16.2002 8.40436C16.1707 8.3191 16.1241 8.24078 16.0632 8.17425C16.0023 8.10771 15.9284 8.05437 15.846 8.01751C15.7637 7.98066 15.6747 7.96107 15.5845 7.95996Z" fill="white" stroke="#363A45" stroke-width="0.7" stroke-miterlimit="10"/>
<path d="M18.885 12.7549L18.5115 12.6845C18.0828 12.6036 17.6697 12.8857 17.5888 13.3144L17.2478 15.1225C17.167 15.5513 17.449 15.9644 17.8777 16.0452L18.2512 16.1157C18.6799 16.1965 19.093 15.9145 19.1739 15.4858L19.5149 13.6776C19.5957 13.2489 19.3137 12.8358 18.885 12.7549Z" fill="#00C65E"/>
<path d="M6.71538 16.1211L7.0888 16.0507C7.51754 15.9698 7.79956 15.5567 7.71871 15.128L7.37771 13.3199C7.29685 12.8911 6.88374 12.6091 6.45499 12.6899L6.08157 12.7604C5.65283 12.8412 5.37081 13.2543 5.45166 13.6831L5.79266 15.4912C5.87352 15.92 6.28663 16.202 6.71538 16.1211Z" fill="#00C65E"/>
<path d="M10.5363 7.95996V9.07144C10.5363 9.34758 10.7601 9.57144 11.0363 9.57144H13.9627C14.2389 9.57144 14.4627 9.34758 14.4627 9.07144V7.95996H10.5363Z" fill="#363A45"/>
</svg>
