<svg width="25" height="25" viewBox="0 0 25 25" fill="none" xmlns="http://www.w3.org/2000/svg">
<path d="M21.6757 10.1568L13.3992 1.90264C13.1617 1.6548 12.8363 1.5102 12.4932 1.5C12.1499 1.50372 11.8213 1.63997 11.5761 1.88027L3.33308 10.1568C2.5278 10.9621 4.0489 12.3937 4.0489 12.3937V23.5H20.9599V12.349C20.9599 12.349 22.4587 10.9621 21.6757 10.1568Z" fill="#00C65E" stroke="#00C65E" stroke-width="0.7" stroke-linecap="round" stroke-linejoin="round"/>
<path d="M16.3295 14.8555V18.5464H17.8729V16.3989C17.8729 16.1962 17.833 15.9955 17.7554 15.8083C17.6779 15.621 17.5642 15.4509 17.4209 15.3075C17.2775 15.1642 17.1074 15.0505 16.9201 14.973C16.7329 14.8954 16.5322 14.8555 16.3295 14.8555Z" fill="white"/>
<path d="M8.65698 14.8555V18.5464H10.1893V16.3989C10.1907 16.1968 10.1522 15.9963 10.0759 15.8091C9.99951 15.6219 9.88688 15.4517 9.74444 15.3082C9.60201 15.1647 9.4326 15.0509 9.24596 14.9732C9.05932 14.8955 8.85915 14.8555 8.65698 14.8555Z" fill="white"/>
<path d="M16.3295 14.9219C16.1283 14.9219 15.929 14.9616 15.7431 15.0386C15.5572 15.1156 15.3883 15.2284 15.246 15.3707C15.1038 15.513 14.9909 15.6819 14.9139 15.8678C14.8369 16.0537 14.7972 16.253 14.7972 16.4542V18.6128H17.873V16.443C17.8715 16.2418 17.8304 16.0428 17.7521 15.8575C17.6737 15.6721 17.5596 15.504 17.4163 15.3628C17.273 15.2215 17.1032 15.1099 16.9168 15.0343C16.7303 14.9586 16.5307 14.9204 16.3295 14.9219Z" stroke="white" stroke-width="0.7" stroke-linecap="round" stroke-linejoin="round"/>
<path d="M8.65696 14.922C8.25445 14.925 7.86925 15.0862 7.58462 15.3708C7.29999 15.6554 7.13879 16.0406 7.13586 16.4431V18.6018H10.2116V16.4431C10.2102 16.241 10.1687 16.0411 10.0897 15.855C10.0106 15.6689 9.89549 15.5003 9.75097 15.3589C9.60646 15.2175 9.43539 15.1061 9.24763 15.0311C9.05987 14.9562 8.85912 14.9191 8.65696 14.922V14.922Z" stroke="white" stroke-width="0.7" stroke-linecap="round" stroke-linejoin="round"/>
<path d="M16.9783 10.917C16.9783 10.917 17.7947 10.1677 17.3585 9.74267L12.9742 5.35833C12.9117 5.29407 12.8369 5.24299 12.7543 5.20812C12.6717 5.17324 12.5829 5.15527 12.4933 5.15527C12.4036 5.15527 12.3149 5.17324 12.2323 5.20812C12.1496 5.24299 12.0749 5.29407 12.0123 5.35833L7.628 9.74267C7.1918 10.1789 8.00827 10.917 8.00827 10.917H16.9783Z" fill="white" stroke="white" stroke-width="0.7" stroke-linecap="round" stroke-linejoin="round"/>
<path d="M13.6455 2.61895C12.9856 1.95906 12.7395 1.8584 12.4152 1.8584C12.0893 1.86184 11.7772 1.9899 11.5428 2.2163L3.7136 10.0455C2.94187 10.8172 4.39586 12.1482 4.39586 12.1482L13.6455 2.61895Z" fill="#00C65E"/>
</svg>
