<svg width="25" height="25" viewBox="0 0 25 25" fill="none" xmlns="http://www.w3.org/2000/svg">
<path d="M20.7034 10.405L13.3034 3.02504C13.0911 2.80345 12.8002 2.67416 12.4934 2.66504C12.1865 2.66837 11.8927 2.79018 11.6734 3.00504L4.30342 10.405C3.58342 11.125 4.94342 12.405 4.94342 12.405V22.335H20.0634V12.365C20.0634 12.365 21.4034 11.125 20.7034 10.405Z" fill="white" stroke="#363A45" stroke-width="0.7" stroke-linecap="round" stroke-linejoin="round"/>
<path d="M15.9233 14.6055V17.9055H17.3033V15.9855C17.3033 15.8042 17.2676 15.6248 17.1983 15.4574C17.1289 15.2899 17.0273 15.1378 16.8991 15.0097C16.771 14.8815 16.6189 14.7799 16.4514 14.7105C16.284 14.6412 16.1046 14.6055 15.9233 14.6055Z" fill="#00C65E"/>
<path d="M9.06335 14.6055V17.9055H10.4334V15.9855C10.4347 15.8047 10.4002 15.6255 10.332 15.4581C10.2637 15.2907 10.163 15.1385 10.0356 15.0103C9.9083 14.882 9.75682 14.7802 9.58995 14.7107C9.42308 14.6412 9.24411 14.6055 9.06335 14.6055Z" fill="#00C65E"/>
<path d="M15.9233 14.6651C15.7434 14.6651 15.5653 14.7005 15.3991 14.7694C15.2329 14.8382 15.0818 14.9391 14.9546 15.0663C14.8274 15.1936 14.7265 15.3446 14.6576 15.5108C14.5888 15.677 14.5533 15.8552 14.5533 16.0351V17.9651H17.3033V16.0251C17.302 15.8452 17.2653 15.6673 17.1952 15.5016C17.1252 15.3358 17.0232 15.1855 16.895 15.0593C16.7669 14.933 16.6151 14.8332 16.4484 14.7655C16.2817 14.6979 16.1033 14.6638 15.9233 14.6651Z" stroke="#363A45" stroke-width="0.7" stroke-linecap="round" stroke-linejoin="round"/>
<path d="M9.06337 14.6652C8.70348 14.6678 8.35908 14.8119 8.1046 15.0664C7.85011 15.3209 7.70599 15.6653 7.70337 16.0252V17.9552H10.4534V16.0252C10.4521 15.8444 10.415 15.6657 10.3443 15.4993C10.2736 15.333 10.1707 15.1822 10.0415 15.0558C9.91231 14.9294 9.75936 14.8298 9.59148 14.7627C9.4236 14.6957 9.24412 14.6625 9.06337 14.6652V14.6652Z" stroke="#363A45" stroke-width="0.7" stroke-linecap="round" stroke-linejoin="round"/>
<path d="M16.5035 11.0851C16.5035 11.0851 17.2335 10.4151 16.8435 10.0351L12.9235 6.11514C12.8676 6.05769 12.8007 6.01202 12.7268 5.98084C12.653 5.94966 12.5736 5.93359 12.4935 5.93359C12.4133 5.93359 12.3339 5.94966 12.2601 5.98084C12.1862 6.01202 12.1194 6.05769 12.0635 6.11514L8.14347 10.0351C7.75347 10.4251 8.48347 11.0851 8.48347 11.0851H16.5035Z" fill="white" stroke="#363A45" stroke-width="0.7" stroke-linecap="round" stroke-linejoin="round"/>
<path d="M13.5237 3.66535C12.9337 3.07535 12.7137 2.98535 12.4237 2.98535C12.1323 2.98842 11.8532 3.10293 11.6437 3.30535L4.64366 10.3054C3.95366 10.9954 5.25366 12.1854 5.25366 12.1854L13.5237 3.66535Z" fill="#00C65E"/>
</svg>
