<svg width="25" height="25" viewBox="0 0 25 25" fill="none" xmlns="http://www.w3.org/2000/svg">
<path d="M14.1524 5.81641L16.0219 6.94946L6.67419 23.0729C6.62236 23.1715 6.55005 23.2579 6.46212 23.3263C6.37418 23.3947 6.27265 23.4435 6.16431 23.4694C6.05858 23.499 5.94802 23.5072 5.83908 23.4936C5.73014 23.4799 5.625 23.4448 5.5298 23.3901L5.1219 23.1522C5.02626 23.098 4.94274 23.0248 4.87648 22.9371C4.81022 22.8494 4.76264 22.7491 4.73666 22.6423C4.67761 22.4249 4.70609 22.1931 4.81597 21.9964L14.1524 5.82774V5.81641Z" fill="#00C65E" stroke="#00C65E" stroke-width="0.7" stroke-miterlimit="10"/>
<path d="M19.761 7.92443L15.4894 6.79137L10.9572 3.84543L12.3282 1.5L17.2003 3.93607L20.2935 7.08597L19.761 7.92443Z" fill="#00C65E" stroke="#00C65E" stroke-width="0.7" stroke-miterlimit="10"/>
<path d="M19.7157 7.10872L16.9398 4.24209L15.5348 3.52826L12.4982 1.9873L11.807 3.18834L19.5684 7.45997L19.7497 7.14271L19.7157 7.10872Z" fill="white"/>
</svg>
