<svg width="25" height="25" viewBox="0 0 25 25" fill="none" xmlns="http://www.w3.org/2000/svg">
<path d="M13.9583 6.60156L15.6083 7.60156L7.35828 21.8316C7.31254 21.9186 7.24873 21.9948 7.17112 22.0552C7.09351 22.1156 7.0039 22.1587 6.90828 22.1816C6.81497 22.2076 6.71739 22.2149 6.62125 22.2029C6.5251 22.1908 6.43231 22.1598 6.34828 22.1116L5.98828 21.9016C5.90388 21.8538 5.83016 21.7892 5.77168 21.7118C5.71321 21.6344 5.67121 21.5458 5.64828 21.4516C5.59617 21.2597 5.6213 21.0551 5.71828 20.8816L13.9583 6.61156V6.60156Z" fill="white" stroke="#363A45" stroke-width="0.7" stroke-miterlimit="10"/>
<path d="M18.9083 8.46199L15.1383 7.46199L11.1383 4.86199L12.3483 2.79199L16.6483 4.94199L19.3783 7.72199L18.9083 8.46199Z" fill="white" stroke="#363A45" stroke-width="0.7" stroke-miterlimit="10"/>
<path d="M18.8683 7.74168L16.4183 5.21168L15.1783 4.58168L12.4983 3.22168L11.8883 4.28168L18.7383 8.05168L18.8983 7.77168L18.8683 7.74168Z" fill="#00C65E"/>
</svg>
