<svg width="25" height="25" viewBox="0 0 25 25" fill="none" xmlns="http://www.w3.org/2000/svg">
<path d="M18.3236 10.6632H17.6901L17.5731 10.2344C17.3593 9.12451 16.7716 8.12147 15.9078 7.3925C15.0441 6.66354 13.9565 6.2527 12.8265 6.22852H11.5302C8.86939 6.32598 7.4074 8.00239 6.78362 10.2344L6.66666 10.6632H6.04288C5.56683 10.6632 5.09549 10.7574 4.65605 10.9405C4.2166 11.1235 3.81775 11.3918 3.48249 11.7298C3.14724 12.0677 2.88222 12.4688 2.70271 12.9097C2.52321 13.3506 2.43278 13.8227 2.43664 14.2987V15.7704C2.43532 15.8245 2.445 15.8784 2.46511 15.9286C2.48521 15.9789 2.51532 16.0245 2.5536 16.0628C2.63058 16.1419 2.73565 16.1874 2.846 16.1895H21.5107C21.6211 16.187 21.7263 16.1421 21.8043 16.064C21.8824 15.986 21.9273 15.8808 21.9298 15.7704V14.2987C21.9219 13.3473 21.5403 12.4372 20.8674 11.7646C20.538 11.421 20.1434 11.1466 19.7065 10.9575C19.2697 10.7683 18.7996 10.6683 18.3236 10.6632Z" fill="white" stroke="#363A45" stroke-width="0.7" stroke-miterlimit="10"/>
<path d="M11.6861 10.4979V8.18795C11.6812 8.11787 11.6624 8.04948 11.6306 7.98681C11.5989 7.92414 11.5549 7.86845 11.5014 7.82303C11.4478 7.77762 11.3856 7.74339 11.3186 7.72236C11.2516 7.70134 11.181 7.69395 11.1111 7.70062C10.3853 7.77253 9.70104 8.07255 9.15645 8.55761C8.61185 9.04267 8.23496 9.68782 8.07988 10.4004C8.06229 10.4731 8.06131 10.5488 8.07702 10.6219C8.09273 10.695 8.12473 10.7636 8.17063 10.8226C8.21653 10.8816 8.27515 10.9295 8.34212 10.9627C8.4091 10.9959 8.48271 11.0136 8.55746 11.0145H11.1988C11.2649 11.0132 11.3301 10.9988 11.3906 10.972C11.4511 10.9453 11.5056 10.9067 11.551 10.8586C11.5964 10.8105 11.6317 10.7538 11.6549 10.6919C11.6781 10.6299 11.6887 10.564 11.6861 10.4979Z" fill="#00C65E"/>
<path d="M13.08 10.995H15.7116C15.7891 11.0027 15.8673 10.9921 15.94 10.964C16.0127 10.9359 16.0777 10.8911 16.1299 10.8332C16.182 10.7754 16.2199 10.7061 16.2403 10.6309C16.2608 10.5557 16.2633 10.4768 16.2476 10.4005C16.0889 9.69145 15.7105 9.05062 15.1662 8.56933C14.6219 8.08805 13.9395 7.79087 13.2164 7.72015C13.1465 7.71348 13.0759 7.72087 13.0089 7.7419C12.9419 7.76292 12.8797 7.79715 12.8262 7.84257C12.7726 7.88798 12.7286 7.94367 12.6969 8.00634C12.6651 8.06901 12.6463 8.13741 12.6414 8.20748V10.4979C12.6383 10.6208 12.6818 10.7404 12.7631 10.8325C12.8445 10.9247 12.9577 10.9828 13.08 10.995Z" fill="#00C65E"/>
<path d="M17.3001 18.1291C17.6857 18.1291 18.0626 18.0148 18.3831 17.8006C18.7037 17.5864 18.9535 17.282 19.1011 16.9258C19.2486 16.5696 19.2872 16.1776 19.212 15.7995C19.1368 15.4214 18.9511 15.074 18.6785 14.8014C18.4059 14.5288 18.0586 14.3431 17.6804 14.2679C17.3023 14.1927 16.9104 14.2313 16.5542 14.3789C16.198 14.5264 15.8935 14.7762 15.6793 15.0968C15.4652 15.4174 15.3508 15.7942 15.3508 16.1798C15.3508 16.6968 15.5562 17.1926 15.9218 17.5582C16.2873 17.9237 16.7832 18.1291 17.3001 18.1291Z" fill="white" stroke="#363A45" stroke-width="0.7" stroke-miterlimit="10"/>
<path d="M17.3001 17.0375C17.4756 17.0375 17.6471 16.9855 17.7929 16.8881C17.9388 16.7906 18.0524 16.6521 18.1196 16.49C18.1867 16.328 18.2043 16.1496 18.17 15.9776C18.1358 15.8055 18.0514 15.6475 17.9273 15.5235C17.8033 15.3994 17.6452 15.3149 17.4732 15.2807C17.3011 15.2465 17.1228 15.2641 16.9607 15.3312C16.7987 15.3983 16.6601 15.512 16.5627 15.6579C16.4652 15.8037 16.4132 15.9752 16.4132 16.1506C16.4132 16.3858 16.5067 16.6114 16.673 16.7778C16.8393 16.9441 17.0649 17.0375 17.3001 17.0375Z" fill="#00C65E"/>
<path d="M6.80308 18.1291C7.18862 18.1291 7.5655 18.0148 7.88606 17.8006C8.20662 17.5864 8.45647 17.282 8.60401 16.9258C8.75155 16.5696 8.79016 16.1776 8.71494 15.7995C8.63973 15.4214 8.45407 15.074 8.18145 14.8014C7.90884 14.5288 7.5615 14.3431 7.18337 14.2679C6.80524 14.1927 6.4133 14.2313 6.05711 14.3789C5.70091 14.5264 5.39647 14.7762 5.18228 15.0968C4.96809 15.4174 4.85376 15.7942 4.85376 16.1798C4.85376 16.6968 5.05913 17.1926 5.4247 17.5582C5.79027 17.9237 6.28609 18.1291 6.80308 18.1291Z" fill="white" stroke="#363A45" stroke-width="0.7" stroke-miterlimit="10"/>
<path d="M6.80308 17.0375C6.9785 17.0375 7.14998 16.9855 7.29583 16.8881C7.44169 16.7906 7.55537 16.6521 7.6225 16.49C7.68963 16.328 7.7072 16.1496 7.67297 15.9776C7.63875 15.8055 7.55428 15.6475 7.43024 15.5235C7.3062 15.3994 7.14816 15.3149 6.97611 15.2807C6.80406 15.2465 6.62573 15.2641 6.46366 15.3312C6.30159 15.3983 6.16307 15.512 6.06561 15.6579C5.96816 15.8037 5.91614 15.9752 5.91614 16.1506C5.91614 16.3858 6.00958 16.6114 6.17592 16.7778C6.34225 16.9441 6.56785 17.0375 6.80308 17.0375Z" fill="#00C65E"/>
</svg>
