<svg width="25" height="25" viewBox="0 0 25 25" fill="none" xmlns="http://www.w3.org/2000/svg">
<path d="M19.1133 10.4727H18.3983L18.2663 9.98875C18.025 8.73617 17.3617 7.60414 16.3868 6.78144C15.412 5.95873 14.1846 5.49507 12.9093 5.46777H11.4463C8.44332 5.57777 6.79333 7.46976 6.08933 9.98875L5.95733 10.4727H5.25334C4.71607 10.4727 4.18412 10.5791 3.68817 10.7857C3.19221 10.9923 2.74207 11.295 2.3637 11.6765C1.98533 12.0579 1.68623 12.5105 1.48365 13.0081C1.28106 13.5057 1.17901 14.0385 1.18336 14.5757V16.2367C1.18187 16.2978 1.19279 16.3585 1.21548 16.4153C1.23818 16.472 1.27216 16.5235 1.31536 16.5667C1.40224 16.656 1.52082 16.7073 1.64536 16.7097H22.7102C22.8348 16.7069 22.9535 16.6562 23.0416 16.5681C23.1297 16.48 23.1804 16.3613 23.1832 16.2367V14.5757C23.1743 13.502 22.7437 12.4748 21.9842 11.7157C21.6125 11.3279 21.167 11.0183 20.674 10.8048C20.1811 10.5914 19.6504 10.4785 19.1133 10.4727Z" fill="#00C65E" stroke="#00C65E" stroke-width="0.7" stroke-miterlimit="10"/>
<path d="M11.6224 10.2866V7.67964C11.6168 7.60055 11.5955 7.52336 11.5597 7.45263C11.5239 7.3819 11.4743 7.31905 11.4138 7.26779C11.3533 7.21654 11.2832 7.1779 11.2076 7.15418C11.1319 7.13045 11.0523 7.12211 10.9734 7.12964C10.1543 7.21079 9.38201 7.5494 8.76739 8.09683C8.15276 8.64426 7.7274 9.37237 7.55238 10.1766C7.53252 10.2586 7.53142 10.3441 7.54915 10.4266C7.56688 10.509 7.60299 10.5865 7.65479 10.6531C7.7066 10.7197 7.77275 10.7737 7.84834 10.8112C7.92393 10.8487 8.00701 10.8687 8.09138 10.8696H11.0724C11.147 10.8682 11.2206 10.8519 11.2888 10.8217C11.3571 10.7915 11.4186 10.748 11.4699 10.6937C11.5211 10.6394 11.561 10.5754 11.5871 10.5055C11.6133 10.4356 11.6253 10.3612 11.6224 10.2866Z" fill="white"/>
<path d="M13.1952 10.8471H16.1652C16.2527 10.8558 16.341 10.8438 16.423 10.8121C16.505 10.7804 16.5784 10.7298 16.6373 10.6645C16.6962 10.5992 16.7389 10.521 16.762 10.4362C16.7851 10.3513 16.7879 10.2622 16.7702 10.1761C16.5911 9.37591 16.164 8.65268 15.5497 8.1095C14.9354 7.56633 14.1653 7.23093 13.3492 7.15112C13.2703 7.14359 13.1907 7.15193 13.115 7.17566C13.0394 7.19939 12.9693 7.23802 12.9088 7.28928C12.8483 7.34053 12.7987 7.40338 12.7629 7.47411C12.727 7.54485 12.7058 7.62203 12.7002 7.70112V10.2861C12.6968 10.4248 12.7459 10.5597 12.8377 10.6637C12.9295 10.7678 13.0572 10.8333 13.1952 10.8471Z" fill="white"/>
<path d="M17.9583 18.899C18.3934 18.899 18.8187 18.77 19.1805 18.5282C19.5423 18.2865 19.8243 17.9429 19.9908 17.5409C20.1573 17.1389 20.2009 16.6966 20.116 16.2698C20.0311 15.8431 19.8216 15.4511 19.5139 15.1434C19.2062 14.8357 18.8142 14.6262 18.3875 14.5413C17.9607 14.4564 17.5184 14.5 17.1164 14.6665C16.7144 14.833 16.3708 15.115 16.1291 15.4768C15.8873 15.8385 15.7583 16.2639 15.7583 16.699C15.7583 17.2825 15.9901 17.8421 16.4027 18.2546C16.8152 18.6672 17.3748 18.899 17.9583 18.899Z" fill="#00C65E" stroke="white" stroke-width="0.7" stroke-miterlimit="10"/>
<path d="M17.9583 17.667C18.1562 17.667 18.3498 17.6083 18.5144 17.4983C18.679 17.3883 18.8073 17.232 18.8831 17.0491C18.9588 16.8662 18.9787 16.6649 18.94 16.4707C18.9014 16.2766 18.8061 16.0982 18.6661 15.9582C18.5261 15.8182 18.3477 15.7229 18.1536 15.6843C17.9594 15.6457 17.7581 15.6655 17.5752 15.7412C17.3923 15.817 17.236 15.9453 17.126 16.1099C17.016 16.2745 16.9573 16.4681 16.9573 16.666C16.9573 16.9315 17.0627 17.1861 17.2505 17.3738C17.4382 17.5616 17.6928 17.667 17.9583 17.667Z" fill="white"/>
<path d="M6.11124 18.899C6.54636 18.899 6.9717 18.77 7.33349 18.5282C7.69528 18.2865 7.97725 17.9429 8.14376 17.5409C8.31028 17.1389 8.35384 16.6966 8.26896 16.2698C8.18407 15.8431 7.97454 15.4511 7.66687 15.1434C7.35919 14.8357 6.96719 14.6262 6.54044 14.5413C6.11368 14.4564 5.67134 14.5 5.26934 14.6665C4.86735 14.833 4.52376 15.115 4.28202 15.4768C4.04028 15.8385 3.91125 16.2639 3.91125 16.699C3.91125 17.2825 4.14304 17.8421 4.55562 18.2546C4.96819 18.6672 5.52777 18.899 6.11124 18.899Z" fill="#00C65E" stroke="white" stroke-width="0.7" stroke-miterlimit="10"/>
<path d="M6.11135 17.667C6.30932 17.667 6.50286 17.6083 6.66747 17.4983C6.83208 17.3883 6.96038 17.232 7.03614 17.0491C7.11191 16.8662 7.13173 16.6649 7.09311 16.4707C7.05448 16.2766 6.95915 16.0982 6.81916 15.9582C6.67916 15.8182 6.5008 15.7229 6.30663 15.6843C6.11246 15.6457 5.91119 15.6655 5.72828 15.7412C5.54537 15.817 5.38904 15.9453 5.27905 16.1099C5.16906 16.2745 5.11035 16.4681 5.11035 16.666C5.11035 16.9315 5.21581 17.1861 5.40354 17.3738C5.59126 17.5616 5.84587 17.667 6.11135 17.667Z" fill="white"/>
</svg>
