<svg width="25" height="17" viewBox="0 0 25 17" fill="none" xmlns="http://www.w3.org/2000/svg">
<path d="M0.351562 6.57031C0.343388 6.42343 0.361718 6.29918 0.405273 6.20703C0.443236 6.12673 0.508299 6.05231 0.646484 6.00391C0.732466 5.9739 0.827123 5.98037 0.944335 6.0332C1.06705 6.08857 1.19599 6.18776 1.31934 6.31152C1.44065 6.4333 1.54383 6.56566 1.61719 6.66895C1.65335 6.71987 1.68148 6.76259 1.70019 6.79199C1.70946 6.80655 1.71634 6.81801 1.7207 6.8252C1.72217 6.82761 1.72374 6.8296 1.72461 6.83106L3.22754 9.46875C3.30616 9.6067 3.46859 9.67445 3.62207 9.63379C3.77523 9.59298 3.88175 9.45443 3.88184 9.2959L3.88184 3.7832C3.88185 3.10947 3.95173 2.62134 4.0625 2.3125C4.1692 2.01508 4.27103 1.98331 4.30273 1.97949C4.39387 1.98072 4.47008 2.01537 4.55469 2.14356C4.65189 2.29091 4.73437 2.53015 4.80078 2.86914L5.28613 6.40234C5.31094 6.58253 5.46976 6.71365 5.65137 6.7041C5.83321 6.69431 5.97718 6.54629 5.98242 6.36426L5.98242 6.36328C5.98246 6.36207 5.98333 6.35981 5.9834 6.35742C5.98354 6.35244 5.98311 6.34474 5.9834 6.33496C5.98398 6.31537 5.98517 6.28638 5.98633 6.24902C5.98864 6.17415 5.99255 6.06534 5.99707 5.93066C6.00611 5.66129 6.01901 5.28774 6.03613 4.87109C6.07047 4.03578 6.11935 3.03456 6.17969 2.35059C6.24143 1.65085 6.31388 1.12068 6.45312 0.768555C6.52073 0.597673 6.59481 0.496065 6.66601 0.437501C6.73021 0.384758 6.81323 0.34961 6.94336 0.34961C7.08761 0.349675 7.17396 0.383106 7.23242 0.424805C7.29385 0.468628 7.35499 0.54341 7.41113 0.673829C7.53066 0.951648 7.58514 1.37657 7.63086 1.96289C7.67505 2.5297 7.71774 3.6264 7.74902 4.58887C7.76461 5.06839 7.77724 5.51215 7.78613 5.83594C7.79057 5.99759 7.79354 6.12934 7.7959 6.2207C7.79707 6.26624 7.79822 6.30205 7.79883 6.32617C7.79912 6.33802 7.79965 6.34734 7.7998 6.35352L7.7998 6.36328C7.80449 6.55171 7.95799 6.70213 8.14648 6.7041C8.33481 6.70582 8.49048 6.55831 8.49902 6.37012L8.49902 6.36816C8.49908 6.3668 8.49988 6.36486 8.5 6.3623C8.50025 6.35685 8.5005 6.3485 8.50098 6.33789C8.50193 6.31677 8.50309 6.28577 8.50488 6.24609C8.50849 6.16616 8.51325 6.05062 8.51953 5.91016C8.5321 5.6291 8.54966 5.24607 8.56738 4.83887C8.60276 4.02567 8.64074 3.11074 8.65234 2.71875C8.66381 2.33204 8.69896 1.87287 8.81348 1.52441C8.87052 1.35095 8.93784 1.23491 9.00586 1.16797C9.06293 1.11182 9.12532 1.08342 9.22168 1.08887C9.22818 1.08924 9.2347 1.08984 9.24121 1.08984C9.32205 1.08984 9.37802 1.1063 9.42285 1.13477C9.46917 1.1643 9.53064 1.22342 9.59473 1.35059C9.73007 1.61915 9.84125 2.11911 9.875 3.00684C9.9091 3.90394 9.93836 4.74391 9.95898 5.35938C9.96928 5.66677 9.9778 5.91816 9.9834 6.09277C9.9862 6.18011 9.98878 6.24867 9.99023 6.29492C9.99096 6.31799 9.99084 6.3358 9.99121 6.34766C9.99139 6.3535 9.99209 6.35836 9.99219 6.36133L9.99219 6.36523C9.99802 6.55385 10.1521 6.70355 10.3408 6.7041C10.5295 6.70457 10.6846 6.55579 10.6914 6.36719L10.7705 4.14063L10.7715 4.14063C10.8051 3.42515 10.9332 3.09889 11.0449 2.9541C11.1321 2.84127 11.231 2.80961 11.3945 2.80957C11.4607 2.80957 11.4996 2.82148 11.5293 2.83984C11.5599 2.85894 11.6146 2.90632 11.6748 3.03223C11.8027 3.30007 11.914 3.83214 11.9375 4.85254L11.9219 10.9746L11.9219 10.9736C11.8863 11.7465 11.86 12.3964 11.7881 12.958C11.7165 13.5177 11.6026 13.961 11.4072 14.3213L11.3984 14.3389L10.8994 15.4336C10.7328 15.7939 10.5541 16.1621 10.4033 16.4385L5.13379 16.4385C4.58815 15.4287 4.01652 14.4884 3.64355 13.9258C3.15715 13.1315 2.36881 11.444 1.69434 9.93262C1.35923 9.1817 1.05523 8.48131 0.83496 7.96875C0.72484 7.7125 0.635804 7.50254 0.574218 7.35742C0.543551 7.28516 0.520061 7.2287 0.503906 7.19043C0.495814 7.17126 0.489482 7.15629 0.485351 7.14648C0.483329 7.14168 0.481493 7.13818 0.480468 7.13574C0.47995 7.13451 0.479748 7.13342 0.479492 7.13281L0.478515 7.13184C0.477998 7.13056 0.477694 7.12789 0.476562 7.125C0.473913 7.11824 0.469084 7.10719 0.463867 7.09277C0.453269 7.06346 0.43825 7.02016 0.422851 6.9668C0.3913 6.85741 0.359632 6.71466 0.351562 6.57031Z" fill="white" stroke="#363A45" stroke-width="0.7" stroke-linejoin="round"/>
<path d="M24.6484 6.57129C24.6566 6.4244 24.6383 6.30016 24.5947 6.20801C24.5568 6.12771 24.4917 6.05328 24.3535 6.00488C24.2675 5.97488 24.1729 5.98135 24.0557 6.03418C23.933 6.08955 23.804 6.18873 23.6807 6.3125C23.5593 6.43428 23.4562 6.56664 23.3828 6.66992C23.3466 6.72085 23.3185 6.76357 23.2998 6.79297C23.2905 6.80753 23.2837 6.81899 23.2793 6.82617C23.2778 6.82859 23.2763 6.83057 23.2754 6.83203L21.7725 9.46973C21.6938 9.60767 21.5314 9.67543 21.3779 9.63477C21.2248 9.59396 21.1183 9.45541 21.1182 9.29688L21.1182 3.78418C21.1181 3.11045 21.0483 2.62232 20.9375 2.31348C20.8308 2.01605 20.729 1.98428 20.6973 1.98047C20.6061 1.9817 20.5299 2.01635 20.4453 2.14453C20.3481 2.29189 20.2656 2.53113 20.1992 2.87012L19.7139 6.40332C19.6891 6.58351 19.5302 6.71463 19.3486 6.70508C19.1668 6.69528 19.0228 6.54726 19.0176 6.36523L19.0176 6.36426C19.0175 6.36305 19.0167 6.36078 19.0166 6.3584C19.0165 6.35341 19.0169 6.34572 19.0166 6.33594C19.016 6.31635 19.0148 6.28736 19.0137 6.25C19.0114 6.17513 19.0074 6.06631 19.0029 5.93164C18.9939 5.66227 18.981 5.28872 18.9639 4.87207C18.9295 4.03675 18.8806 3.03554 18.8203 2.35156C18.7586 1.65183 18.6861 1.12166 18.5469 0.769532C18.4793 0.59865 18.4052 0.497042 18.334 0.438477C18.2698 0.385734 18.1868 0.350587 18.0566 0.350587C17.9124 0.350651 17.826 0.384083 17.7676 0.425782C17.7061 0.469605 17.645 0.544386 17.5889 0.674805C17.4693 0.952624 17.4149 1.37754 17.3691 1.96387C17.325 2.53068 17.2823 3.62738 17.251 4.58984C17.2354 5.06937 17.2228 5.51312 17.2139 5.83691C17.2094 5.99857 17.2065 6.13032 17.2041 6.22168C17.2029 6.26722 17.2018 6.30303 17.2012 6.32715C17.2009 6.339 17.2003 6.34832 17.2002 6.35449L17.2002 6.36426C17.1955 6.55269 17.042 6.70311 16.8535 6.70508C16.6652 6.7068 16.5095 6.55929 16.501 6.37109L16.501 6.36914C16.5009 6.36778 16.5001 6.36584 16.5 6.36328C16.4998 6.35782 16.4995 6.34947 16.499 6.33887C16.4981 6.31774 16.4969 6.28674 16.4951 6.24707C16.4915 6.16714 16.4868 6.0516 16.4805 5.91113C16.4679 5.63008 16.4503 5.24705 16.4326 4.83984C16.3972 4.02665 16.3593 3.11172 16.3477 2.71973C16.3362 2.33301 16.301 1.87385 16.1865 1.52539C16.1295 1.35193 16.0622 1.23589 15.9941 1.16895C15.9371 1.1128 15.8747 1.08439 15.7783 1.08984C15.7718 1.09021 15.7653 1.09082 15.7588 1.09082C15.6779 1.09082 15.622 1.10727 15.5771 1.13574C15.5308 1.16528 15.4694 1.2244 15.4053 1.35156C15.2699 1.62012 15.1588 2.12008 15.125 3.00781C15.0909 3.90491 15.0616 4.74489 15.041 5.36035C15.0307 5.66775 15.0222 5.91914 15.0166 6.09375C15.0138 6.18109 15.0112 6.24965 15.0098 6.2959C15.009 6.31896 15.0092 6.33678 15.0088 6.34863C15.0086 6.35448 15.0079 6.35933 15.0078 6.3623L15.0078 6.36621C15.002 6.55482 14.8479 6.70453 14.6592 6.70508C14.4705 6.70554 14.3154 6.55676 14.3086 6.36816L14.2295 4.1416L14.2285 4.1416C14.1949 3.42613 14.0668 3.09987 13.9551 2.95508C13.8679 2.84225 13.769 2.81059 13.6055 2.81055C13.5393 2.81055 13.5004 2.82245 13.4707 2.84082C13.4401 2.85992 13.3854 2.9073 13.3252 3.0332C13.1973 3.30104 13.086 3.83312 13.0625 4.85352L13.0781 10.9756L13.0781 10.9746C13.1137 11.7475 13.14 12.3974 13.2119 12.959C13.2835 13.5187 13.3974 13.962 13.5928 14.3223L13.6016 14.3398L14.1006 15.4346C14.2672 15.7948 14.4459 16.1631 14.5967 16.4395L19.8662 16.4395C20.4119 15.4297 20.9835 14.4893 21.3564 13.9268C21.8429 13.1325 22.6312 11.4449 23.3057 9.93359C23.6408 9.18268 23.9448 8.48229 24.165 7.96973C24.2752 7.71348 24.3642 7.50351 24.4258 7.3584C24.4564 7.28614 24.4799 7.22967 24.4961 7.19141C24.5042 7.17224 24.5105 7.15727 24.5146 7.14746C24.5167 7.14266 24.5185 7.13915 24.5195 7.13672C24.52 7.13549 24.5203 7.1344 24.5205 7.13379L24.5215 7.13281C24.522 7.13153 24.5223 7.12886 24.5234 7.12598C24.5261 7.11922 24.5309 7.10817 24.5361 7.09375C24.5467 7.06444 24.5617 7.02113 24.5771 6.96777C24.6087 6.85839 24.6404 6.71564 24.6484 6.57129Z" fill="white" stroke="#363A45" stroke-width="0.7" stroke-linejoin="round"/>
<path d="M16.264 6.06358C16.8994 6.30545 17.4441 6.73143 17.8252 7.2863C18.204 7.83807 18.4037 8.49158 18.3983 9.16013C18.3607 9.67352 18.2173 10.1748 17.9769 10.6337C17.7352 11.095 17.4006 11.5045 16.9934 11.8351L16.9731 11.8525C16.2718 12.5169 15.0306 13.3646 13.9432 14.0567C13.4037 14.4001 12.909 14.7013 12.5494 14.9161C12.3857 15.0139 12.2494 15.0926 12.1504 15.1506C12.0477 15.0869 11.9051 14.9981 11.7329 14.8894C11.3653 14.6574 10.8621 14.3356 10.3212 13.9752C9.22848 13.2471 8.0156 12.3859 7.42526 11.7946C7.41763 11.787 7.40948 11.7787 7.40116 11.7718C7.00197 11.4399 6.6774 11.0296 6.44969 10.5662C6.2228 10.1044 6.09654 9.60026 6.07852 9.08609C6.0915 8.41697 6.30984 7.76534 6.70495 7.21713C7.10223 6.66599 7.65967 6.24529 8.30274 6.01116C8.9459 5.77707 9.6449 5.74028 10.3061 5.90568C10.9672 6.07104 11.5602 6.4306 12.0062 6.93647C12.0723 7.01144 12.1686 7.05543 12.2696 7.05636C12.3704 7.05713 12.4668 7.01489 12.5346 6.94129C12.9956 6.44072 13.5995 6.08863 14.2655 5.9318C14.9316 5.77497 15.6285 5.82165 16.264 6.06358Z" fill="#00C65E" stroke="white" stroke-width="0.7" stroke-linejoin="round"/>
</svg>
