<svg width="19" height="19" viewBox="0 0 19 19" fill="none" xmlns="http://www.w3.org/2000/svg">
<path d="M11.0311 8.16206C10.6594 7.64173 10.0499 7.2998 9.36603 7.2998C8.68217 7.2998 8.07264 7.64173 7.70098 8.16206C7.46312 8.50399 7.31445 8.92025 7.31445 9.36624C7.31445 10.4961 8.23617 11.4178 9.36603 11.4178C10.4959 11.4178 11.4176 10.4961 11.4176 9.36624C11.4176 8.92025 11.2689 8.50399 11.0311 8.16206Z" fill="currentColor"/>
<path d="M12.3251 8.17676C12.4737 8.47409 12.5629 8.94981 12.5629 9.36608C12.5629 11.1203 11.1358 12.5624 9.36664 12.5624C7.59753 12.5624 6.17035 11.1352 6.17035 9.36608C6.17035 8.93495 6.25955 8.47409 6.40822 8.17676H4.60938V12.9489C4.60938 13.5733 5.15943 14.1233 5.78383 14.1233H12.9495C13.5739 14.1233 14.1239 13.5733 14.1239 12.9489V8.17676H12.3251Z" fill="currentColor"/>
<path d="M13.5878 4.87619H11.8633V6.85343H13.8257V5.12892V4.86133L13.5878 4.87619Z" fill="currentColor"/>
<path d="M14.0339 0H4.6978C2.11104 0 0 2.11104 0 4.6978V14.0488C0 16.6207 2.11104 18.7317 4.6978 18.7317H14.0488C16.6356 18.7317 18.7466 16.6207 18.7466 14.0339V4.6978C18.7317 2.11104 16.6207 0 14.0339 0ZM15.1638 8.16169V12.9487C15.1638 14.1975 14.1975 15.1638 12.9487 15.1638H5.78306C4.53427 15.1638 3.56795 14.1975 3.56795 12.9487V8.16169V5.78305C3.56795 4.53427 4.53427 3.56795 5.78306 3.56795H12.9487C14.1975 3.56795 15.1638 4.53427 15.1638 5.78305V8.16169Z" fill="currentColor"/>
</svg>
