<svg width="149" height="63" viewBox="0 0 149 63" fill="none" xmlns="http://www.w3.org/2000/svg">
<path d="M0 18.2429H14.6677V51.7099H20.9728C35.1206 51.7099 42.1918 44.836 42.1863 31.088C42.1863 17.621 35.6212 10.8899 22.491 10.8949H19.8423V0L21.7361 0C33.03 0 41.8046 2.71016 48.06 8.13049C54.3153 13.5508 57.4402 21.0974 57.4347 30.7702C57.4347 41.0688 54.1964 48.953 47.7198 54.4226C41.2432 59.8922 31.8685 62.6442 19.5957 62.6787H0V18.2429Z" fill="white"/>
<path d="M14.676 0H0V13.0753H14.676V0Z" fill="white"/>
<path d="M71.4651 26.3898H66.4361V44.6177H71.4651V26.3898ZM71.8282 21.1975C71.8282 20.3623 71.5559 19.6724 71.0294 19.1641C70.4847 18.6557 69.7585 18.4016 68.8508 18.4016C68.0156 18.4016 67.3439 18.6557 66.8355 19.1641C66.3272 19.6724 66.073 20.3623 66.073 21.1975C66.073 22.0326 66.309 22.7043 66.8174 23.2127C67.3257 23.721 67.9975 23.9752 68.8508 23.9752C69.7585 23.9752 70.4847 23.721 71.0294 23.2127C71.5559 22.7043 71.8282 22.0326 71.8282 21.1975ZM81.7047 18.5831H76.6757V44.6177H81.7047V18.5831ZM91.0001 45.7251C90.401 47.1049 89.348 47.7767 87.8411 47.7767C87.0968 47.7767 86.4795 47.6678 85.9893 47.4136V51.8616L86.3524 51.9887C86.6066 52.0976 86.9878 52.1884 87.5325 52.2792C88.059 52.3881 88.6036 52.4244 89.1483 52.4244C92.1984 52.4244 94.5404 50.1913 96.2107 45.7251L103.455 26.3898H98.2622L93.9776 38.4812L89.7111 26.3898H84.5006L91.5629 44.4361L91.0001 45.7251ZM103.237 42.203C103.237 42.9474 103.527 43.601 104.108 44.1456C104.689 44.7085 105.379 44.9808 106.214 44.9808C107.031 44.9808 107.739 44.7085 108.32 44.1456C108.901 43.601 109.192 42.9474 109.192 42.203C109.192 41.4587 108.901 40.8051 108.32 40.2423C107.739 39.6976 107.031 39.4071 106.214 39.4071C105.379 39.4071 104.689 39.6976 104.108 40.2423C103.527 40.8051 103.237 41.4587 103.237 42.203ZM124.061 26.2083H123.316C122.318 26.2083 121.374 26.4443 120.466 26.88C119.558 27.3339 118.977 27.697 118.705 27.9693C118.451 28.2417 118.233 28.4595 118.088 28.6229V26.3898H113.077V44.6177H118.088V35.885C118.088 34.3237 118.487 33.1254 119.25 32.2903C120.012 31.4551 121.065 31.0376 122.372 31.0376C123.117 31.0557 123.68 31.1284 124.043 31.2554L124.061 26.2083ZM139.13 44.6177H144.14V26.3898H139.13V36.0666C139.13 37.4464 138.785 38.4994 138.113 39.2256C137.441 39.9699 136.533 40.333 135.408 40.333C134.391 40.333 133.538 40.0063 132.866 39.3345C132.194 38.6809 131.868 37.8276 131.868 36.8109V26.3898H126.857V37.3011C126.857 39.625 127.51 41.495 128.817 42.8929C130.125 44.2909 131.831 44.9808 133.919 44.9808C134.899 44.9808 135.843 44.7811 136.751 44.3817C137.659 43.9822 138.24 43.6554 138.512 43.4013C138.766 43.1471 138.984 42.9474 139.13 42.7658V44.6177Z" fill="white"/>
</svg>
