<svg width="17" height="17" viewBox="0 0 17 17" fill="none" xmlns="http://www.w3.org/2000/svg">
<path d="M11.3598 14.8203C11.594 15.1834 11.9689 15.5964 12.289 15.922C12.494 16.1305 12.3483 16.4999 12.0559 16.4999H4.94614C4.65375 16.4999 4.50808 16.1305 4.71306 15.922C5.03315 15.5964 5.408 15.1834 5.64219 14.8203C6.11756 14.0833 6.27916 12.9287 6.27916 12.9287H10.7229C10.7229 12.9287 10.8845 14.0833 11.3598 14.8203Z" fill="white" stroke="#363A45" stroke-width="0.7"/>
<mask id="path-2-inside-1_789_5321" fill="white">
<rect x="1.44592" y="2.5957" width="14.1103" height="11.2227" rx="0.636856"/>
</mask>
<rect x="1.44592" y="2.5957" width="14.1103" height="11.2227" rx="0.636856" fill="white" stroke="#363A45" stroke-width="1.4" mask="url(#path-2-inside-1_789_5321)"/>
<path d="M3.8437 12.2399C2.97583 12.022 2.7196 11.0747 2.7196 10.2569C2.7196 7.29174 3.63155 7.5412 3.60124 5.96864C3.55992 3.85611 4.58482 3.66665 4.96228 3.75822C9.24374 4.83501 11.6517 4.074 11.6517 4.074C13.3048 3.70138 9.99864 7.13701 11.6517 10.6421C12.5664 12.6188 5.28187 12.5999 3.8437 12.2399Z" fill="#00C65E"/>
<mask id="path-4-inside-2_789_5321" fill="white">
<rect x="1.44592" width="14.1103" height="3.02122" rx="0.636856"/>
</mask>
<rect x="1.44592" width="14.1103" height="3.02122" rx="0.636856" fill="white" stroke="#363A45" stroke-width="1.4" mask="url(#path-4-inside-2_789_5321)"/>
<path d="M1.90918 2.33594H15.0908C15.2154 2.33612 15.3253 2.4175 15.3633 2.53613L16.4004 5.77246C16.4597 5.95758 16.3213 6.14746 16.127 6.14746H0.873047C0.678668 6.14746 0.540314 5.95757 0.599609 5.77246L1.63672 2.53613C1.67472 2.4175 1.78464 2.33612 1.90918 2.33594Z" fill="white" stroke="#363A45" stroke-width="0.7"/>
<rect x="8.13855" y="2.08203" width="0.722434" height="4.16762" fill="#363A45"/>
<path d="M11.9558 2.08203H12.6782L13.4007 6.24965H12.6782L11.9558 2.08203Z" fill="#363A45"/>
<path d="M5.04272 2.08203H4.32029L3.59786 6.24965H4.32029L5.04272 2.08203Z" fill="#363A45"/>
</svg>
